<svg xmlns="http://www.w3.org/2000/svg" xmlns:xlink="http://www.w3.org/1999/xlink" width="29" height="29" viewBox="0 0 29 29">
  <defs>
    <linearGradient id="linear-gradient" x1="0.5" x2="0.5" y2="1" gradientUnits="objectBoundingBox">
      <stop offset="0" stop-color="#647dee"/>
      <stop offset="1" stop-color="#7f53ac"/>
    </linearGradient>
  </defs>
  <g id="Calendar" transform="translate(-4 -4)">
    <path id="Path_12523" data-name="Path 12523" d="M12,47h2.072v1.554H12Z" transform="translate(-3.857 -20.732)" fill="url(#linear-gradient)"/>
    <path id="Path_12524" data-name="Path 12524" d="M43.7,38a5.7,5.7,0,1,0,5.7,5.7A5.7,5.7,0,0,0,43.7,38Zm3.724,4.258-4.394,4.394a.518.518,0,0,1-.732,0l-2.2-2.2a.518.518,0,1,1,.732-.732l1.831,1.831,4.028-4.028a.518.518,0,1,1,.732.732Z" transform="translate(-16.393 -16.393)" fill="url(#linear-gradient)"/>
    <path id="Path_12525" data-name="Path 12525" d="M24,29h2.072v1.554H24Z" transform="translate(-9.643 -12.053)" fill="url(#linear-gradient)"/>
    <path id="Path_12526" data-name="Path 12526" d="M36,29h2.071v1.554H36Z" transform="translate(-15.428 -12.053)" fill="url(#linear-gradient)"/>
    <path id="Path_12527" data-name="Path 12527" d="M12,38h2.072v1.554H12Z" transform="translate(-3.857 -16.393)" fill="url(#linear-gradient)"/>
    <path id="Path_12528" data-name="Path 12528" d="M24,38h2.072v1.554H24Z" transform="translate(-9.643 -16.393)" fill="url(#linear-gradient)"/>
    <path id="Path_12529" data-name="Path 12529" d="M12,29h2.072v1.554H12Z" transform="translate(-3.857 -12.053)" fill="url(#linear-gradient)"/>
    <path id="Path_12530" data-name="Path 12530" d="M15.036,9.179a1.039,1.039,0,0,0,1.036-1.036V5.036a1.036,1.036,0,0,0-2.071,0V8.143a1.039,1.039,0,0,0,1.036,1.036Z" transform="translate(-4.821)" fill="url(#linear-gradient)"/>
    <path id="Path_12531" data-name="Path 12531" d="M31.036,9.179a1.039,1.039,0,0,0,1.036-1.036V5.036a1.036,1.036,0,0,0-2.071,0V8.143A1.039,1.039,0,0,0,31.036,9.179Z" transform="translate(-12.535)" fill="url(#linear-gradient)"/>
    <path id="Path_12532" data-name="Path 12532" d="M47.036,9.179a1.039,1.039,0,0,0,1.036-1.036V5.036a1.036,1.036,0,0,0-2.071,0V8.143A1.039,1.039,0,0,0,47.036,9.179Z" transform="translate(-20.25)" fill="url(#linear-gradient)"/>
    <path id="Path_12533" data-name="Path 12533" d="M48,29h2.071v1.554H48Z" transform="translate(-21.214 -12.053)" fill="url(#linear-gradient)"/>
    <path id="Path_12534" data-name="Path 12534" d="M31.447,10H28.858v1.036a2.071,2.071,0,0,1-4.143,0V10H20.572v1.036a2.071,2.071,0,0,1-4.143,0V10H12.286v1.036a2.071,2.071,0,1,1-4.143,0V10H5.554A1.558,1.558,0,0,0,4,11.554v3.625H33V11.554A1.558,1.558,0,0,0,31.447,10Z" transform="translate(0 -2.893)" fill="url(#linear-gradient)"/>
    <path id="Path_12535" data-name="Path 12535" d="M24,47h2.072v1.554H24Z" transform="translate(-9.643 -20.732)" fill="url(#linear-gradient)"/>
    <path id="Path_12536" data-name="Path 12536" d="M4,22V38.054a1.558,1.558,0,0,0,1.554,1.554H21.64A6.724,6.724,0,0,1,33,32.409V22Zm7.25,14.5a1.036,1.036,0,0,1-1.036,1.036H8.143A1.036,1.036,0,0,1,7.107,36.5V34.947a1.036,1.036,0,0,1,1.036-1.036h2.071a1.036,1.036,0,0,1,1.036,1.036Zm0-4.661a1.036,1.036,0,0,1-1.036,1.036H8.143a1.036,1.036,0,0,1-1.036-1.036V30.286A1.036,1.036,0,0,1,8.143,29.25h2.071a1.036,1.036,0,0,1,1.036,1.036Zm0-4.661a1.036,1.036,0,0,1-1.036,1.036H8.143a1.036,1.036,0,0,1-1.036-1.036V25.625a1.036,1.036,0,0,1,1.036-1.036h2.071a1.036,1.036,0,0,1,1.036,1.036ZM17.465,36.5a1.036,1.036,0,0,1-1.036,1.036H14.357A1.036,1.036,0,0,1,13.322,36.5V34.947a1.036,1.036,0,0,1,1.036-1.036h2.071a1.036,1.036,0,0,1,1.036,1.036Zm0-4.661a1.036,1.036,0,0,1-1.036,1.036H14.357a1.036,1.036,0,0,1-1.036-1.036V30.286a1.036,1.036,0,0,1,1.036-1.036h2.071a1.036,1.036,0,0,1,1.036,1.036Zm0-4.661a1.036,1.036,0,0,1-1.036,1.036H14.357a1.036,1.036,0,0,1-1.036-1.036V25.625a1.036,1.036,0,0,1,1.036-1.036h2.071a1.036,1.036,0,0,1,1.036,1.036Zm5.179,3.107H20.572v1.554a.518.518,0,0,1,0,1.036,1.036,1.036,0,0,1-1.036-1.036V30.286a1.036,1.036,0,0,1,1.036-1.036h2.071a.518.518,0,1,1,0,1.036Zm1.036-3.107a1.036,1.036,0,0,1-1.036,1.036H20.572a1.036,1.036,0,0,1-1.036-1.036V25.625a1.036,1.036,0,0,1,1.036-1.036h2.071a1.036,1.036,0,0,1,1.036,1.036Zm6.214,0a1.036,1.036,0,0,1-1.036,1.036H26.786a1.036,1.036,0,0,1-1.036-1.036V25.625a1.036,1.036,0,0,1,1.036-1.036h2.071a1.036,1.036,0,0,1,1.036,1.036Z" transform="translate(0 -8.678)" fill="url(#linear-gradient)"/>
  </g>
</svg>
