<svg xmlns="http://www.w3.org/2000/svg" width="29" height="29" viewBox="0 0 29 29">
  <g id="Calendar" transform="translate(-2 -2)">
    <path id="Path_12511" data-name="Path 12511" d="M28.583,4.9H26.167V3.933a1.933,1.933,0,1,0-3.867,0V4.9H18.433V3.933a1.933,1.933,0,1,0-3.867,0V4.9H10.7V3.933a1.933,1.933,0,1,0-3.867,0V4.9H4.417A2.417,2.417,0,0,0,2,7.317V26.65a2.417,2.417,0,0,0,2.417,2.417H17.95a.483.483,0,1,0,0-.967H4.417a1.454,1.454,0,0,1-1.45-1.45V11.667H30.033v8.217a.483.483,0,0,0,.967,0V7.317A2.417,2.417,0,0,0,28.583,4.9Zm-5.317-.967a.967.967,0,1,1,1.933,0v2.9a.967.967,0,0,1-1.933,0Zm-7.733,0a.967.967,0,1,1,1.933,0v2.9a.967.967,0,1,1-1.933,0Zm-7.733,0a.967.967,0,1,1,1.933,0v2.9a.967.967,0,1,1-1.933,0ZM30.033,10.7H2.967V7.317a1.454,1.454,0,0,1,1.45-1.45H6.833v.967a1.933,1.933,0,1,0,3.867,0V5.867h3.867v.967a1.933,1.933,0,1,0,3.867,0V5.867H22.3v.967a1.933,1.933,0,1,0,3.867,0V5.867h2.417a1.454,1.454,0,0,1,1.45,1.45Z" transform="translate(0)" fill="#b6b6b6"/>
    <path id="Path_12512" data-name="Path 12512" d="M25.867,27.967A.967.967,0,0,0,24.9,27H22.967a.967.967,0,0,0-.967.967v1.45a.967.967,0,0,0,.967.967H24.9a.967.967,0,0,0,.967-.967Zm-2.9,1.45v-1.45H24.9v1.45Z" transform="translate(-10.333 -12.917)" fill="#b6b6b6"/>
    <path id="Path_12513" data-name="Path 12513" d="M13.867,27.967A.967.967,0,0,0,12.9,27H10.967a.967.967,0,0,0-.967.967v1.45a.967.967,0,0,0,.967.967H12.9a.967.967,0,0,0,.967-.967Zm-2.9,1.45v-1.45H12.9v1.45Z" transform="translate(-4.133 -12.917)" fill="#b6b6b6"/>
    <path id="Path_12514" data-name="Path 12514" d="M48.9,30.383a.967.967,0,0,0,.967-.967v-1.45A.967.967,0,0,0,48.9,27H46.967a.967.967,0,0,0-.967.967v1.45a.967.967,0,0,0,.967.967Zm-1.933-2.417H48.9v1.45H46.967Z" transform="translate(-22.733 -12.917)" fill="#b6b6b6"/>
    <path id="Path_12515" data-name="Path 12515" d="M25.867,36.967A.967.967,0,0,0,24.9,36H22.967a.967.967,0,0,0-.967.967v1.45a.967.967,0,0,0,.967.967H24.9a.967.967,0,0,0,.967-.967Zm-2.9,1.45v-1.45H24.9v1.45Z" transform="translate(-10.333 -17.567)" fill="#b6b6b6"/>
    <path id="Path_12516" data-name="Path 12516" d="M13.867,36.967A.967.967,0,0,0,12.9,36H10.967a.967.967,0,0,0-.967.967v1.45a.967.967,0,0,0,.967.967H12.9a.967.967,0,0,0,.967-.967Zm-2.9,1.45v-1.45H12.9v1.45Z" transform="translate(-4.133 -17.567)" fill="#b6b6b6"/>
    <path id="Path_12517" data-name="Path 12517" d="M24.9,45H22.967a.967.967,0,0,0-.967.967v1.45a.967.967,0,0,0,.967.967H24.9a.967.967,0,0,0,.967-.967v-1.45A.967.967,0,0,0,24.9,45Zm-1.933,2.417v-1.45H24.9v1.45Z" transform="translate(-10.333 -22.217)" fill="#b6b6b6"/>
    <path id="Path_12518" data-name="Path 12518" d="M34.967,30.383H36.9a.967.967,0,0,0,.967-.967v-1.45A.967.967,0,0,0,36.9,27H34.967a.967.967,0,0,0-.967.967v1.45A.967.967,0,0,0,34.967,30.383Zm0-2.417H36.9v1.45H34.967Z" transform="translate(-16.533 -12.917)" fill="#b6b6b6"/>
    <path id="Path_12519" data-name="Path 12519" d="M34,38.417a.967.967,0,0,0,.967.967.483.483,0,1,0,0-.967v-1.45H36.9a.483.483,0,0,0,0-.967H34.967a.967.967,0,0,0-.967.967Z" transform="translate(-16.533 -17.567)" fill="#b6b6b6"/>
    <path id="Path_12520" data-name="Path 12520" d="M12.9,45H10.967a.967.967,0,0,0-.967.967v1.45a.967.967,0,0,0,.967.967H12.9a.967.967,0,0,0,.967-.967v-1.45A.967.967,0,0,0,12.9,45Zm-1.933,2.417v-1.45H12.9v1.45Z" transform="translate(-4.133 -22.217)" fill="#b6b6b6"/>
    <path id="Path_12521" data-name="Path 12521" d="M42.283,36a6.283,6.283,0,1,0,6.283,6.283A6.283,6.283,0,0,0,42.283,36Zm0,11.6A5.317,5.317,0,1,1,47.6,42.283,5.317,5.317,0,0,1,42.283,47.6Z" transform="translate(-17.567 -17.567)" fill="#b6b6b6"/>
    <path id="Path_12522" data-name="Path 12522" d="M48.051,44.657l-3.759,3.759-1.709-1.709a.483.483,0,1,0-.683.683l2.05,2.051a.483.483,0,0,0,.683,0l4.1-4.1a.483.483,0,1,0-.683-.683Z" transform="translate(-20.542 -21.966)" fill="#b6b6b6"/>
  </g>
</svg>
