<svg xmlns="http://www.w3.org/2000/svg" width="22" height="28" viewBox="0 0 22 28">
  <g id="Group_9683" data-name="Group 9683" transform="translate(-53 -242)">
    <g id="Rectangle_3054" data-name="Rectangle 3054" transform="translate(53 242)" fill="#fff" stroke="#b6b6b6" stroke-width="1.2">
      <rect width="22" height="28" rx="2" stroke="none"/>
      <rect x="0.6" y="0.6" width="20.8" height="26.8" rx="1.4" fill="none"/>
    </g>
    <g id="Group_9681" data-name="Group 9681" transform="translate(30)">
      <g id="Rectangle_3048" data-name="Rectangle 3048" transform="translate(27 264)" fill="#b6b6b6" stroke="#b6b6b6" stroke-width="1">
        <rect width="14" height="1.2" rx="0.6" stroke="none"/>
        <rect x="0.5" y="0.5" width="13" height="0.2" rx="0.1" fill="none"/>
      </g>
      <g id="Rectangle_3049" data-name="Rectangle 3049" transform="translate(27 260)" fill="#b6b6b6" stroke="#b6b6b6" stroke-width="1">
        <rect width="14" height="1.2" rx="0.6" stroke="none"/>
        <rect x="0.5" y="0.5" width="13" height="0.2" rx="0.1" fill="none"/>
      </g>
      <g id="Rectangle_3050" data-name="Rectangle 3050" transform="translate(27 256)" fill="#b6b6b6" stroke="#b6b6b6" stroke-width="1">
        <rect width="14" height="1.2" rx="0.6" stroke="none"/>
        <rect x="0.5" y="0.5" width="13" height="0.2" rx="0.1" fill="none"/>
      </g>
      <g id="Rectangle_3052" data-name="Rectangle 3052" transform="translate(27 252)" fill="#b6b6b6" stroke="#b6b6b6" stroke-width="1">
        <rect width="14" height="1.2" rx="0.6" stroke="none"/>
        <rect x="0.5" y="0.5" width="13" height="0.2" rx="0.1" fill="none"/>
      </g>
      <g id="Rectangle_3053" data-name="Rectangle 3053" transform="translate(27 248)" fill="#b6b6b6" stroke="#b6b6b6" stroke-width="1">
        <rect width="14" height="1.2" rx="0.6" stroke="none"/>
        <rect x="0.5" y="0.5" width="13" height="0.2" rx="0.1" fill="none"/>
      </g>
    </g>
  </g>
</svg>
