<svg xmlns="http://www.w3.org/2000/svg" width="29.001" height="24.453" viewBox="0 0 29.001 24.453">
  <g id="noun_folder_folder_3218908" data-name="noun_folder folder_3218908" transform="translate(-255.999 22.037)">
    <g id="Layer_7" data-name="Layer 7" transform="translate(253.84 -27.622)">
      <path id="Path_12502" data-name="Path 12502" d="M28.112,9.037H15.626l-2.7-3.216a.665.665,0,0,0-.508-.237H2.823a.664.664,0,0,0-.664.664V26.989a3.051,3.051,0,0,0,3.048,3.048H28.112a3.051,3.051,0,0,0,3.048-3.048v-14.9A3.051,3.051,0,0,0,28.112,9.037ZM3.487,6.912H12.1l1.788,2.125H3.487ZM29.832,26.989a1.722,1.722,0,0,1-1.72,1.72H5.207a1.722,1.722,0,0,1-1.72-1.72V10.365H28.112a1.722,1.722,0,0,1,1.72,1.72Z" transform="translate(0)" fill="#b6b6b6"/>
    </g>
  </g>
</svg>
