<svg xmlns="http://www.w3.org/2000/svg" width="29" height="29" viewBox="0 0 29 29">
  <g id="noun_profile_781964" transform="translate(21 26.666)">
    <g id="Group_9673" data-name="Group 9673" transform="translate(-34.34 -41.006)">
      <g id="Group_9672" data-name="Group 9672" transform="translate(13.34 14.34)">
        <path id="Path_12508" data-name="Path 12508" d="M27.84,14.34a14.5,14.5,0,1,0,14.5,14.5A14.516,14.516,0,0,0,27.84,14.34Zm0,27.78a13.218,13.218,0,0,1-8.455-3.047,6.636,6.636,0,0,1,6.2-4.376h4.459a6.645,6.645,0,0,1,6.222,4.4A13.219,13.219,0,0,1,27.84,42.12Zm9.394-3.9a7.874,7.874,0,0,0-7.186-4.741H25.589a7.862,7.862,0,0,0-7.165,4.718,13.28,13.28,0,1,1,18.81.023Z" transform="translate(-13.34 -14.34)" fill="#b6b6b6"/>
        <path id="Path_12509" data-name="Path 12509" d="M40.561,31.7a5.782,5.782,0,1,0,5.782,5.782A5.789,5.789,0,0,0,40.561,31.7Zm0,10.345a4.563,4.563,0,1,1,4.563-4.563A4.568,4.568,0,0,1,40.561,42.042Z" transform="translate(-26.062 -24.639)" fill="#b6b6b6"/>
      </g>
    </g>
  </g>
</svg>
