<svg xmlns="http://www.w3.org/2000/svg" width="30.399" height="28.846" viewBox="0 0 30.399 28.846">
  <g id="noun_add_group_2977042" data-name="noun_add group_2977042" transform="translate(-0.123 -0.519)">
    <g id="Group_9671" data-name="Group 9671" transform="translate(1.323 1.719)">
      <g id="Path_12503" data-name="Path 12503" transform="translate(6.04 -281.786)" fill="none" stroke-linecap="round">
        <path d="M13.144,281.786A4.149,4.149,0,1,1,9,285.935,4.155,4.155,0,0,1,13.144,281.786Z" stroke="none"/>
        <path d="M 13.14421463012695 281.7859802246094 C 10.859375 281.7859802246094 8.995004653930664 283.6503295898438 8.995004653930664 285.9351501464844 C 8.995004653930664 288.219970703125 10.859375 290.0844116210938 13.14421463012695 290.0844116210938 C 15.42905521392822 290.0844116210938 17.28958511352539 288.219970703125 17.28958511352539 285.9351501464844 C 17.28958511352539 283.6503295898438 15.42905521392822 281.7859802246094 13.14421463012695 281.7859802246094 M 13.14421463012695 280.5859680175781 C 16.09166526794434 280.5859680175781 18.48958587646484 282.985595703125 18.48958587646484 285.9351501464844 C 18.48958587646484 288.8847351074219 16.09166526794434 291.284423828125 13.14421463012695 291.284423828125 C 10.19465446472168 291.284423828125 7.795005798339844 288.8847351074219 7.795005798339844 285.9351501464844 C 7.795005798339844 282.985595703125 10.19465446472168 280.5859680175781 13.14421463012695 280.5859680175781 Z" stroke="none" fill="white"/>
      </g>
      <g id="Path_12504" data-name="Path 12504" transform="translate(4.263 -277.214)" fill="none" stroke-linecap="round">
        <path d="M14.921,286.55a7.747,7.747,0,0,0-7.778,7.728V296.4a.519.519,0,0,0,.516.516h2.622a7.238,7.238,0,0,1,12.089-4.859,7.764,7.764,0,0,0-7.45-5.51Z" stroke="none"/>
        <path d="M 14.92128658294678 286.5499572753906 C 10.62319755554199 286.5499572753906 7.143447875976563 290.0025024414063 7.143447875976563 294.2781372070313 L 7.143447875976563 296.4028625488281 C 7.144596099853516 296.6876220703125 7.375177383422852 296.9182434082031 7.659946441650391 296.9193420410156 L 10.28196716308594 296.9193420410156 C 10.55045700073242 293.1591491699219 13.68549728393555 290.1785888671875 17.51290702819824 290.1785888671875 C 19.38202667236328 290.1785888671875 21.08257675170898 290.8955078125 22.37100601196289 292.0602416992188 C 21.41261672973633 288.8701171875 18.44360733032227 286.5499572753906 14.92128658294678 286.5499572753906 M 14.92128658294678 285.3499450683594 C 16.89233779907227 285.3499450683594 18.76215744018555 285.9722290039063 20.32858657836914 287.1495361328125 C 21.84460639953613 288.2889404296875 22.97809600830078 289.9103088378906 23.52026748657227 291.7149658203125 L 24.75831604003906 295.8359985351563 L 21.56628799438477 292.9504089355469 C 20.44502639770508 291.9367980957031 19.00550651550293 291.3786010742188 17.51290702819824 291.3786010742188 C 14.35463714599609 291.3786010742188 11.70418739318848 293.8499145507813 11.47891616821289 297.0048217773438 L 11.39933776855469 298.1193542480469 L 10.28196716308594 298.1193542480469 L 7.659946441650391 298.1193542480469 C 6.715187072753906 298.1156921386719 5.947256088256836 297.3478698730469 5.943456649780273 296.40771484375 L 5.943447113037109 294.2781372070313 C 5.943447113037109 291.8887329101563 6.878007888793945 289.6446228027344 8.574966430664063 287.9592590332031 C 10.26916694641113 286.2766418457031 12.52299690246582 285.3499450683594 14.92128658294678 285.3499450683594 Z" stroke="none" fill="white"/>
      </g>
      <g id="Path_12505" data-name="Path 12505" transform="translate(0.454 -281.786)" fill="none" stroke-linecap="round">
        <path d="M7.324,281.786a4.149,4.149,0,1,1-4.149,4.149A4.155,4.155,0,0,1,7.324,281.786Z" stroke="none"/>
        <path d="M 7.323896408081055 281.7859802246094 C 5.039055824279785 281.7859802246094 3.174686431884766 283.6503295898438 3.174686431884766 285.9351501464844 C 3.174686431884766 288.219970703125 5.039055824279785 290.0844116210938 7.323896408081055 290.0844116210938 C 9.608736038208008 290.0844116210938 11.46926593780518 288.219970703125 11.46926593780518 285.9351501464844 C 11.46926593780518 283.6503295898438 9.608736038208008 281.7859802246094 7.323896408081055 281.7859802246094 M 7.323896408081055 280.5859680175781 C 10.27134609222412 280.5859680175781 12.66926574707031 282.985595703125 12.66926574707031 285.9351501464844 C 12.66926574707031 288.8847351074219 10.27134609222412 291.284423828125 7.323896408081055 291.284423828125 C 4.374336242675781 291.284423828125 1.974686622619629 288.8847351074219 1.974686622619629 285.9351501464844 C 1.974686622619629 282.985595703125 4.374336242675781 280.5859680175781 7.323896408081055 280.5859680175781 Z" stroke="none" fill="white"/>
      </g>
      <g id="Path_12506" data-name="Path 12506" transform="translate(-1.323 -277.214)" fill="none" stroke-linecap="round">
        <path d="M9.1,286.55a7.747,7.747,0,0,0-7.778,7.728V296.4a.519.519,0,0,0,.516.516h9.951a1.513,1.513,0,0,1-.1-.512s0,0,0,0v-2.125a8.693,8.693,0,0,1,2.368-5.956A7.779,7.779,0,0,0,9.1,286.55Z" stroke="none"/>
        <path d="M 9.101019859313965 286.5499572753906 C 4.802889823913574 286.5499572753906 1.323179244995117 290.0025024414063 1.323179244995117 294.2781372070313 L 1.323179244995117 296.4028625488281 C 1.324329376220703 296.6876220703125 1.554899215698242 296.9182434082031 1.839679718017578 296.9193420410156 L 11.79084968566895 296.9193420410156 C 11.7319393157959 296.7578735351563 11.6934700012207 296.5865783691406 11.69258975982666 296.4069519042969 C 11.69257926940918 296.4056701660156 11.69257926940918 296.4043273925781 11.69258975982666 296.4030456542969 L 11.69258975982666 294.2782897949219 C 11.69263935089111 291.9758911132813 12.59709930419922 289.8870849609375 14.06042003631592 288.3223571777344 C 12.71443939208984 287.2151489257813 10.98686981201172 286.5500793457031 9.101009368896484 286.5500793457031 L 9.101019859313965 286.5499572753906 M 9.101019859313965 285.3499450683594 L 10.40517997741699 285.3499450683594 L 10.39735221862793 285.4438781738281 C 12.01712608337402 285.6792907714844 13.55403327941895 286.3519592285156 14.8227596282959 287.3956298828125 L 15.81033992767334 288.2080078125 L 14.93686962127686 289.1419982910156 C 13.61863994598389 290.5516052246094 12.89262962341309 292.3757019042969 12.8925895690918 294.2783203125 L 12.8925895690918 296.4002075195313 C 12.89298248291016 296.4160766601563 12.89650917053223 296.4486999511719 12.91816997528076 296.508056640625 L 13.50601959228516 298.1193542480469 L 11.79084968566895 298.1193542480469 L 1.839679718017578 298.1193542480469 C 0.8949193954467773 298.1156921386719 0.1269893646240234 297.3478698730469 0.1231899261474609 296.40771484375 L 0.1231794357299805 294.2781372070313 C 0.1231794357299805 291.8887329101563 1.057729721069336 289.6446228027344 2.754679679870605 287.9592590332031 C 4.448879241943359 286.2766418457031 6.702719688415527 285.3499450683594 9.101019859313965 285.3499450683594 Z" stroke="none" fill="white"/>
      </g>
      <g id="Path_12507" data-name="Path 12507" transform="translate(6.295 -274.928)" fill="none" stroke-linecap="round">
        <path d="M15.481,288.931a6.222,6.222,0,1,0,6.223,6.223A6.214,6.214,0,0,0,15.481,288.931Zm-.008,2.074a.519.519,0,0,1,.529.525v3.1h3.1a.519.519,0,1,1,0,1.037H16v3.1a.519.519,0,1,1-1.038,0v-3.1h-3.1a.519.519,0,1,1,0-1.037h3.1v-3.1a.519.519,0,0,1,.509-.525Z" stroke="none"/>
        <path d="M 15.48087978363037 288.930908203125 C 12.03824996948242 288.930908203125 9.260629653930664 291.7116088867188 9.260629653930664 295.1542358398438 C 9.260629653930664 298.596923828125 12.03824996948242 301.3745727539063 15.48087978363037 301.3745727539063 C 18.9234504699707 301.3745727539063 21.70413017272949 298.596923828125 21.70413017272949 295.1542358398438 C 21.70413017272949 291.7115478515625 18.9234504699707 288.930908203125 15.48087978363037 288.930908203125 M 19.10126876831055 294.6336669921875 C 19.10134124755859 294.6336669921875 19.1014404296875 294.6336669921875 19.10150909423828 294.6336669921875 C 19.38785362243652 294.6336669921875 19.61991119384766 294.8658447265625 19.61991119384766 295.1521606445313 C 19.61991119384766 295.4386596679688 19.38771057128906 295.6708374023438 19.10126876831055 295.6708374023438 L 16.00139999389648 295.6707153320313 L 16.00139999389648 298.7748413085938 C 16.00138854980469 299.0614013671875 15.76900959014893 299.2938842773438 15.48235034942627 299.2938842773438 C 15.19569969177246 299.2938842773438 14.96331024169922 299.0614013671875 14.96331024169922 298.7748413085938 L 14.96331024169922 295.6707153320313 L 11.85928916931152 295.6707153320313 C 11.85922050476074 295.6707153320313 11.8591194152832 295.6707153320313 11.85904884338379 295.6707153320313 C 11.57270622253418 295.6707153320313 11.34065055847168 295.4385986328125 11.34065055847168 295.1521606445313 C 11.34065055847168 294.8657836914063 11.57284927368164 294.633544921875 11.85928916931152 294.633544921875 L 14.96331024169922 294.6336669921875 L 14.96331024169922 291.5296020507813 C 14.95997047424316 291.244384765625 15.18758010864258 291.010009765625 15.47276020050049 291.0050048828125 L 15.47264957427979 291.0050048828125 C 15.47595596313477 291.0049438476563 15.47928333282471 291.0049133300781 15.48258304595947 291.0049133300781 C 15.61934566497803 291.0049133300781 15.75073719024658 291.058837890625 15.84801006317139 291.1553955078125 C 15.94762992858887 291.2542114257813 16.0029296875 291.3892211914063 16.00128936767578 291.5296020507813 L 16.00128936767578 294.6336669921875 L 19.10126876831055 294.6336669921875 M 15.48087978363037 287.7308959960938 C 17.46640014648438 287.7308959960938 19.33129119873047 288.5023193359375 20.73200035095215 289.9030456542969 C 22.13272094726563 291.3037719726563 22.90412902832031 293.1686706542969 22.90412902832031 295.1542358398438 C 22.90412902832031 297.1397705078125 22.13261985778809 299.0042419433594 20.73171997070313 300.4042053222656 C 19.33121871948242 301.8038024902344 17.46644020080566 302.5745849609375 15.48087978363037 302.5745849609375 C 13.49533081054688 302.5745849609375 11.6309700012207 301.8036804199219 10.23123931884766 300.4039306640625 C 8.831499099731445 299.0041809082031 8.060630798339844 297.1398010253906 8.060630798339844 295.1542358398438 C 8.060630798339844 293.1686706542969 8.831399917602539 291.3038635253906 10.23094940185547 289.9033508300781 C 11.63090896606445 288.50244140625 13.49537086486816 287.7308959960938 15.48087978363037 287.7308959960938 Z" stroke="none" fill="white"/>
      </g>
    </g>
  </g>
</svg>
