<svg width="24" height="24" viewBox="0 0 24 24" fill="none" xmlns="http://www.w3.org/2000/svg">

<path d="M11.4842 18.4638L5.50605 12.4864C5.39789 12.4376 5.30381 12.3622 5.23249 12.2673C5.16118 12.1724 5.11494 12.0611 5.09805 11.9436C5.06491 11.8031 5.07324 11.656 5.12205 11.5201C5.17422 11.3484 5.28982 11.203 5.44535 11.1135L11.4842 5.07679C11.6165 4.94446 11.7961 4.87012 11.9832 4.87012C12.1704 4.87012 12.3499 4.94446 12.4823 5.07679L12.5635 5.15797C12.6291 5.22352 12.6812 5.30137 12.7167 5.38707C12.7522 5.47276 12.7705 5.56461 12.7705 5.65738C12.7705 5.75014 12.7522 5.842 12.7167 5.92769C12.6812 6.01338 12.6291 6.09123 12.5635 6.15679L7.69923 11.021H20.6719C20.8591 11.021 21.0387 11.0954 21.1711 11.2278C21.3034 11.3602 21.3778 11.5397 21.3778 11.7269V11.842C21.3778 12.0292 21.3034 12.2087 21.1711 12.3411C21.0387 12.4735 20.8591 12.5478 20.6719 12.5478H7.72747L12.5635 17.3838C12.6291 17.4494 12.6812 17.5273 12.7167 17.6129C12.7522 17.6986 12.7705 17.7905 12.7705 17.8833C12.7705 17.976 12.7522 18.0679 12.7167 18.1536C12.6812 18.2393 12.6291 18.3171 12.5635 18.3827L12.4823 18.4638C12.3499 18.5962 12.1704 18.6705 11.9832 18.6705C11.7961 18.6705 11.6165 18.5962 11.4842 18.4638V18.4638Z" fill="url(#paint0_linear)" stroke="url(#paint1_linear)" stroke-width="0.3"/>
<defs>
<linearGradient id="paint0_linear" x1="13.228" y1="4.87012" x2="13.228" y2="18.6705" gradientUnits="userSpaceOnUse">
<stop stop-color="#647DEE"/>
<stop offset="1" stop-color="#7F53AC"/>
</linearGradient>
<linearGradient id="paint1_linear" x1="13.228" y1="4.87012" x2="13.228" y2="18.6705" gradientUnits="userSpaceOnUse">
<stop stop-color="#647DEE"/>
<stop offset="1" stop-color="#7F53AC"/>
</linearGradient>
</defs>
</svg>
