<svg width="19" height="18" viewBox="0 0 19 18" fill="none" xmlns="http://www.w3.org/2000/svg">
<path d="M17.2094 1.80035H15.693V1.20013C15.693 0.881833 15.5651 0.576576 15.3375 0.351509C15.1099 0.126442 14.8012 7.39934e-08 14.4794 7.39934e-08C14.1575 7.39934e-08 13.8488 0.126442 13.6212 0.351509C13.3936 0.576576 13.2657 0.881833 13.2657 1.20013V1.80035H10.8385V1.20013C10.8385 1.04252 10.8071 0.886464 10.7461 0.740858C10.6852 0.595252 10.5958 0.462951 10.4831 0.351509C10.3704 0.240067 10.2366 0.151666 10.0893 0.0913542C9.9421 0.0310422 9.78429 0 9.62491 0C9.46554 0 9.30772 0.0310422 9.16048 0.0913542C9.01324 0.151666 8.87945 0.240067 8.76676 0.351509C8.65406 0.462951 8.56467 0.595252 8.50368 0.740858C8.44269 0.886464 8.4113 1.04252 8.4113 1.20013V1.80035H5.98471V1.20013C5.98471 0.881833 5.85684 0.576576 5.62925 0.351509C5.40165 0.126442 5.09296 7.39934e-08 4.77109 7.39934e-08C4.44922 7.39934e-08 4.14054 0.126442 3.91294 0.351509C3.68535 0.576576 3.55748 0.881833 3.55748 1.20013V1.80035H2.04102C1.63866 1.80035 1.25278 1.95841 0.968272 2.23975C0.683762 2.5211 0.523926 2.90269 0.523926 3.30058V15.3006C0.523926 15.6985 0.683762 16.0801 0.968272 16.3614C1.25278 16.6428 1.63866 16.8008 2.04102 16.8008H10.5354C10.6158 16.8008 10.693 16.7692 10.7499 16.7129C10.8069 16.6567 10.8388 16.5803 10.8388 16.5007C10.8388 16.4211 10.8069 16.3448 10.7499 16.2885C10.693 16.2322 10.6158 16.2006 10.5354 16.2006H2.04102C1.79984 16.2 1.56873 16.1049 1.39819 15.9363C1.22765 15.7676 1.13155 15.5391 1.13089 15.3006V6.00063H18.1196V11.1009C18.1196 11.1805 18.1515 11.2569 18.2085 11.3131C18.2654 11.3694 18.3426 11.401 18.423 11.401C18.5035 11.401 18.5807 11.3694 18.6376 11.3131C18.6946 11.2569 18.7265 11.1805 18.7265 11.1009V3.30058C18.7265 2.90269 18.5667 2.5211 18.2822 2.23975C17.9977 1.95841 17.6118 1.80035 17.2094 1.80035ZM13.8721 1.20013C13.8695 1.11972 13.8832 1.03962 13.9125 0.964574C13.9418 0.889531 13.9861 0.821079 14.0427 0.763288C14.0993 0.705496 14.167 0.659544 14.242 0.628162C14.3169 0.59678 14.3974 0.580609 14.4787 0.580609C14.5601 0.580609 14.6406 0.59678 14.7155 0.628162C14.7904 0.659544 14.8582 0.705496 14.9148 0.763288C14.9714 0.821079 15.0156 0.889531 15.0449 0.964574C15.0742 1.03962 15.088 1.11972 15.0854 1.20013V3.00016C15.0803 3.15593 15.0142 3.30364 14.901 3.41205C14.7877 3.52046 14.6363 3.58108 14.4787 3.58108C14.3211 3.58108 14.1697 3.52046 14.0565 3.41205C13.9433 3.30364 13.8771 3.15593 13.8721 3.00016V1.20013ZM9.01826 1.20013C9.01565 1.11972 9.0294 1.03962 9.05871 0.964574C9.08802 0.889531 9.13229 0.821079 9.18888 0.763288C9.24547 0.705496 9.31323 0.659544 9.38814 0.628162C9.46304 0.59678 9.54356 0.580609 9.62491 0.580609C9.70626 0.580609 9.78678 0.59678 9.86169 0.628162C9.93659 0.659544 10.0044 0.705496 10.0609 0.763288C10.1175 0.821079 10.1618 0.889531 10.1911 0.964574C10.2204 1.03962 10.2342 1.11972 10.2316 1.20013V3.00016C10.2342 3.08057 10.2204 3.16067 10.1911 3.23571C10.1618 3.31076 10.1175 3.37921 10.0609 3.437C10.0044 3.49479 9.93659 3.54074 9.86169 3.57213C9.78678 3.60351 9.70626 3.61968 9.62491 3.61968C9.54356 3.61968 9.46304 3.60351 9.38814 3.57213C9.31323 3.54074 9.24547 3.49479 9.18888 3.437C9.13229 3.37921 9.08802 3.31076 9.05871 3.23571C9.0294 3.16067 9.01565 3.08057 9.01826 3.00016V1.20013ZM4.16445 1.20013C4.16183 1.11972 4.17559 1.03962 4.2049 0.964574C4.23421 0.889531 4.27847 0.821079 4.33506 0.763288C4.39165 0.705496 4.45941 0.659544 4.53432 0.628162C4.60922 0.59678 4.68974 0.580609 4.77109 0.580609C4.85244 0.580609 4.93296 0.59678 5.00787 0.628162C5.08277 0.659544 5.15054 0.705496 5.20713 0.763288C5.26372 0.821079 5.30798 0.889531 5.33729 0.964574C5.3666 1.03962 5.38036 1.11972 5.37774 1.20013V3.00016C5.38036 3.08057 5.3666 3.16067 5.33729 3.23571C5.30798 3.31076 5.26372 3.37921 5.20713 3.437C5.15054 3.49479 5.08277 3.54074 5.00787 3.57213C4.93296 3.60351 4.85244 3.61968 4.77109 3.61968C4.68974 3.61968 4.60922 3.60351 4.53432 3.57213C4.45941 3.54074 4.39165 3.49479 4.33506 3.437C4.27847 3.37921 4.23421 3.31076 4.2049 3.23571C4.17559 3.16067 4.16183 3.08057 4.16445 3.00016V1.20013ZM18.1196 5.40041H1.13089V3.30058C1.13155 3.06208 1.22765 2.83354 1.39819 2.6649C1.56873 2.49625 1.79984 2.40122 2.04102 2.40056H3.55748V3.00078C3.55748 3.31908 3.68535 3.62433 3.91294 3.8494C4.14054 4.07447 4.44922 4.20091 4.77109 4.20091C5.09296 4.20091 5.40165 4.07447 5.62925 3.8494C5.85684 3.62433 5.98471 3.31908 5.98471 3.00078V2.40056H8.41193V3.00078C8.41193 3.31908 8.53979 3.62433 8.76739 3.8494C8.99498 4.07447 9.30367 4.20091 9.62554 4.20091C9.94741 4.20091 10.2561 4.07447 10.4837 3.8494C10.7113 3.62433 10.8392 3.31908 10.8392 3.00078V2.40056H13.2657V3.00078C13.2657 3.31908 13.3936 3.62433 13.6212 3.8494C13.8488 4.07447 14.1575 4.20091 14.4794 4.20091C14.8012 4.20091 15.1099 4.07447 15.3375 3.8494C15.5651 3.62433 15.693 3.31908 15.693 3.00078V2.40056H17.2101C17.4512 2.40122 17.6823 2.49625 17.8529 2.6649C18.0234 2.83354 18.1195 3.06208 18.1202 3.30058L18.1196 5.40041Z" fill="white"/>
<path d="M9.01853 8.10046C9.01853 7.94127 8.95458 7.78861 8.84076 7.67604C8.72693 7.56348 8.57254 7.50024 8.41157 7.50024H7.19827C7.03729 7.50024 6.88291 7.56348 6.76908 7.67604C6.65526 7.78861 6.59131 7.94127 6.59131 8.10046V9.00048C6.59131 9.15967 6.65526 9.31234 6.76908 9.4249C6.88291 9.53746 7.03729 9.6007 7.19827 9.6007H8.41157C8.57254 9.6007 8.72693 9.53746 8.84076 9.4249C8.95458 9.31234 9.01853 9.15967 9.01853 9.00048V8.10046ZM7.19827 9.00048V8.10046H8.41157V9.00048H7.19827Z" fill="white"/>
<path d="M5.37839 8.10046C5.37839 7.94127 5.31445 7.78861 5.20062 7.67604C5.08679 7.56348 4.93241 7.50024 4.77143 7.50024H3.55813C3.47843 7.50024 3.3995 7.51577 3.32586 7.54593C3.25222 7.5761 3.18531 7.62031 3.12895 7.67604C3.07259 7.73178 3.02788 7.79795 2.99737 7.87077C2.96687 7.94359 2.95117 8.02164 2.95117 8.10046V9.00048C2.95117 9.0793 2.96687 9.15735 2.99737 9.23017C3.02788 9.303 3.07259 9.36916 3.12895 9.4249C3.18531 9.48063 3.25222 9.52485 3.32586 9.55501C3.3995 9.58517 3.47843 9.6007 3.55813 9.6007H4.77143C4.93241 9.6007 5.08679 9.53746 5.20062 9.4249C5.31445 9.31234 5.37839 9.15967 5.37839 9.00048V8.10046ZM3.55813 9.00048V8.10046H4.77143V9.00048H3.55813Z" fill="white"/>
<path d="M15.6928 9.60008C15.8538 9.60008 16.0082 9.53684 16.122 9.42428C16.2358 9.31171 16.2998 9.15905 16.2998 8.99986V8.09984C16.2996 7.94076 16.2356 7.78825 16.1218 7.67582C16.008 7.5634 15.8537 7.50024 15.6928 7.50024H14.4795C14.3185 7.50024 14.1642 7.56348 14.0503 7.67604C13.9365 7.78861 13.8726 7.94127 13.8726 8.10046V9.00048C13.8726 9.15967 13.9365 9.31234 14.0503 9.4249C14.1642 9.53746 14.3185 9.6007 14.4795 9.6007L15.6928 9.60008ZM14.4795 8.09984H15.6928V8.99986H14.4795V8.09984Z" fill="white"/>
<path d="M9.01853 10.8007C9.01853 10.6415 8.95458 10.4888 8.84076 10.3762C8.72693 10.2637 8.57254 10.2004 8.41157 10.2004H7.19827C7.03729 10.2004 6.88291 10.2637 6.76908 10.3762C6.65526 10.4888 6.59131 10.6415 6.59131 10.8007V11.7007C6.59131 11.8599 6.65526 12.0125 6.76908 12.1251C6.88291 12.2377 7.03729 12.3009 7.19827 12.3009H8.41157C8.57254 12.3009 8.72693 12.2377 8.84076 12.1251C8.95458 12.0125 9.01853 11.8599 9.01853 11.7007V10.8007ZM7.19827 11.7007V10.8007H8.41157V11.7007H7.19827Z" fill="white"/>
<path d="M5.37839 10.8007C5.37839 10.6415 5.31445 10.4888 5.20062 10.3762C5.08679 10.2637 4.93241 10.2004 4.77143 10.2004H3.55813C3.47843 10.2004 3.3995 10.216 3.32586 10.2461C3.25222 10.2763 3.18531 10.3205 3.12895 10.3762C3.07259 10.432 3.02788 10.4981 2.99737 10.571C2.96687 10.6438 2.95117 10.7218 2.95117 10.8007V11.7007C2.95117 11.7795 2.96687 11.8575 2.99737 11.9304C3.02788 12.0032 3.07259 12.0694 3.12895 12.1251C3.18531 12.1808 3.25222 12.225 3.32586 12.2552C3.3995 12.2854 3.47843 12.3009 3.55813 12.3009H4.77143C4.93241 12.3009 5.08679 12.2377 5.20062 12.1251C5.31445 12.0125 5.37839 11.8599 5.37839 11.7007V10.8007ZM3.55813 11.7007V10.8007H4.77143V11.7007H3.55813Z" fill="white"/>
<path d="M8.41157 12.9001H7.19827C7.03729 12.9001 6.88291 12.9634 6.76908 13.0759C6.65526 13.1885 6.59131 13.3412 6.59131 13.5004V14.4004C6.59131 14.5596 6.65526 14.7122 6.76908 14.8248C6.88291 14.9374 7.03729 15.0006 7.19827 15.0006H8.41157C8.57254 15.0006 8.72693 14.9374 8.84076 14.8248C8.95458 14.7122 9.01853 14.5596 9.01853 14.4004V13.5004C9.01853 13.3412 8.95458 13.1885 8.84076 13.0759C8.72693 12.9634 8.57254 12.9001 8.41157 12.9001ZM7.19827 14.4004V13.5004H8.41157V14.4004H7.19827Z" fill="white"/>
<path d="M10.8389 9.60008H12.0522C12.2132 9.60008 12.3676 9.53684 12.4814 9.42428C12.5952 9.31171 12.6592 9.15905 12.6592 8.99986V8.09984C12.659 7.94076 12.595 7.78825 12.4812 7.67582C12.3674 7.5634 12.2131 7.50024 12.0522 7.50024H10.8389C10.6779 7.50024 10.5235 7.56348 10.4097 7.67604C10.2959 7.78861 10.2319 7.94127 10.2319 8.10046V9.00048C10.2321 9.15956 10.2961 9.31207 10.4099 9.4245C10.5237 9.53693 10.678 9.60008 10.8389 9.60008ZM10.8389 8.09984H12.0522V8.99986H10.8389V8.09984Z" fill="white"/>
<path d="M10.2319 11.7007C10.2319 11.8599 10.2959 12.0125 10.4097 12.1251C10.5235 12.2377 10.6779 12.3009 10.8389 12.3009C10.9194 12.3009 10.9966 12.2693 11.0535 12.213C11.1104 12.1567 11.1424 12.0804 11.1424 12.0008C11.1424 11.9212 11.1104 11.8449 11.0535 11.7886C10.9966 11.7323 10.9194 11.7007 10.8389 11.7007V10.8007H12.0522C12.1327 10.8007 12.2099 10.769 12.2668 10.7128C12.3237 10.6565 12.3557 10.5801 12.3557 10.5005C12.3557 10.421 12.3237 10.3446 12.2668 10.2883C12.2099 10.2321 12.1327 10.2004 12.0522 10.2004H10.8389C10.6779 10.2004 10.5235 10.2637 10.4097 10.3762C10.2959 10.4888 10.2319 10.6415 10.2319 10.8007V11.7007Z" fill="white"/>
<path d="M4.77143 12.9001H3.55813C3.47843 12.9001 3.3995 12.9157 3.32586 12.9458C3.25222 12.976 3.18531 13.0202 3.12895 13.0759C3.07259 13.1317 3.02788 13.1979 2.99737 13.2707C2.96687 13.3435 2.95117 13.4215 2.95117 13.5004V14.4004C2.95117 14.4792 2.96687 14.5573 2.99737 14.6301C3.02788 14.7029 3.07259 14.7691 3.12895 14.8248C3.18531 14.8805 3.25222 14.9247 3.32586 14.9549C3.3995 14.9851 3.47843 15.0006 3.55813 15.0006H4.77143C4.93241 15.0006 5.08679 14.9374 5.20062 14.8248C5.31445 14.7122 5.37839 14.5596 5.37839 14.4004V13.5004C5.37839 13.3412 5.31445 13.1885 5.20062 13.0759C5.08679 12.9634 4.93241 12.9001 4.77143 12.9001ZM3.55813 14.4004V13.5004H4.77143V14.4004H3.55813Z" fill="white"/>
<path d="M14.7821 10.2004C14.0021 10.2004 13.2396 10.4292 12.5911 10.8577C11.9425 11.2862 11.4371 11.8953 11.1386 12.6079C10.8401 13.3205 10.762 14.1046 10.9142 14.8611C11.0663 15.6176 11.4419 16.3125 11.9935 16.8579C12.545 17.4033 13.2477 17.7748 14.0127 17.9252C14.7777 18.0757 15.5706 17.9985 16.2913 17.7033C17.0119 17.4081 17.6278 16.9083 18.0611 16.267C18.4945 15.6256 18.7258 14.8716 18.7258 14.1003C18.7258 13.066 18.3103 12.0741 17.5707 11.3427C16.8311 10.6113 15.828 10.2004 14.7821 10.2004ZM14.7821 17.4006C14.122 17.4006 13.4768 17.207 12.9279 16.8444C12.3791 16.4817 11.9514 15.9663 11.6988 15.3633C11.4462 14.7602 11.3801 14.0966 11.5088 13.4565C11.6376 12.8163 11.9555 12.2282 12.4222 11.7667C12.8889 11.3051 13.4836 10.9908 14.131 10.8635C14.7784 10.7361 15.4494 10.8015 16.0592 11.0513C16.669 11.301 17.1903 11.724 17.557 12.2668C17.9237 12.8095 18.1194 13.4476 18.1194 14.1003C18.1194 14.9756 17.7678 15.815 17.1419 16.434C16.5161 17.0529 15.6672 17.4006 14.7821 17.4006Z" fill="white"/>
<path d="M16.5351 12.8433L14.1757 15.1765L13.103 14.1157C13.075 14.0873 13.0415 14.0646 13.0046 14.049C12.9677 14.0334 12.9279 14.0253 12.8878 14.025C12.8476 14.0247 12.8078 14.0323 12.7706 14.0474C12.7335 14.0625 12.6997 14.0847 12.6713 14.1128C12.6429 14.1409 12.6204 14.1743 12.6052 14.211C12.59 14.2478 12.5822 14.2871 12.5825 14.3269C12.5828 14.3666 12.5911 14.4058 12.6068 14.4424C12.6226 14.4789 12.6455 14.512 12.6743 14.5397L13.961 15.8127C14.0179 15.869 14.095 15.9005 14.1754 15.9005C14.2558 15.9005 14.3329 15.869 14.3897 15.8127L16.9632 13.2679C16.992 13.2402 17.0149 13.2071 17.0307 13.1706C17.0464 13.134 17.0547 13.0948 17.055 13.055C17.0553 13.0153 17.0475 12.9759 17.0323 12.9392C17.0171 12.9025 16.9946 12.8691 16.9662 12.841C16.9378 12.8129 16.904 12.7907 16.8669 12.7756C16.8297 12.7605 16.7899 12.7529 16.7497 12.7532C16.7096 12.7535 16.6698 12.7616 16.6329 12.7772C16.596 12.7928 16.5625 12.8155 16.5345 12.8439L16.5351 12.8433Z" fill="white"/>
</svg>
