<svg width="387" height="32" viewBox="0 0 387 32" fill="none" xmlns="http://www.w3.org/2000/svg">
<rect x="56" width="319" height="32" rx="5" fill="#F6F6F6" fill-opacity="0.8"/>
<path d="M90.3516 22.6484L85.6406 17.9375C86.0625 17.4323 86.3932 16.8672 86.6328 16.2422C86.8776 15.612 87 14.9479 87 14.25C87 13.724 86.9297 13.2188 86.7891 12.7344C86.6536 12.2448 86.4609 11.7865 86.2109 11.3594C85.9609 10.9323 85.6589 10.5443 85.3047 10.1953C84.9557 9.84115 84.5677 9.53906 84.1406 9.28906C83.7135 9.03906 83.2552 8.84635 82.7656 8.71094C82.2812 8.57031 81.776 8.5 81.25 8.5C80.4635 8.5 79.7214 8.65365 79.0234 8.96094C78.3307 9.26302 77.7214 9.67708 77.1953 10.2031C76.6745 10.724 76.2604 11.3333 75.9531 12.0312C75.651 12.724 75.5 13.4635 75.5 14.25C75.5 14.7708 75.5677 15.276 75.7031 15.7656C75.8438 16.25 76.0391 16.7057 76.2891 17.1328C76.5443 17.5547 76.849 17.9427 77.2031 18.2969C77.5573 18.651 77.9453 18.9557 78.3672 19.2109C78.7943 19.4609 79.25 19.6562 79.7344 19.7969C80.224 19.9323 80.7292 20 81.25 20C81.9479 20 82.6094 19.8802 83.2344 19.6406C83.8646 19.3958 84.4323 19.0625 84.9375 18.6406L89.6484 23.3516C89.7474 23.4505 89.8646 23.5 90 23.5C90.1354 23.5 90.2526 23.4505 90.3516 23.3516C90.4505 23.2526 90.5 23.1354 90.5 23C90.5 22.8646 90.4505 22.7474 90.3516 22.6484ZM76.5 14.25C76.5 13.6042 76.625 12.9948 76.875 12.4219C77.1302 11.8438 77.474 11.3385 77.9062 10.9062C78.3385 10.474 78.8411 10.1328 79.4141 9.88281C79.9922 9.6276 80.6042 9.5 81.25 9.5C81.8958 9.5 82.5052 9.6276 83.0781 9.88281C83.6562 10.1328 84.1615 10.474 84.5938 10.9062C85.026 11.3385 85.3672 11.8438 85.6172 12.4219C85.8724 12.9948 86 13.6042 86 14.25C86 14.8958 85.8724 15.5078 85.6172 16.0859C85.3672 16.6589 85.026 17.1615 84.5938 17.5938C84.1615 18.026 83.6562 18.3698 83.0781 18.625C82.5052 18.875 81.8958 19 81.25 19C80.6042 19 79.9922 18.875 79.4141 18.625C78.8411 18.3698 78.3385 18.026 77.9062 17.5938C77.474 17.1615 77.1302 16.6589 76.875 16.0859C76.625 15.5078 76.5 14.8958 76.5 14.25Z" fill="url(#paint0_linear)"/>
<path d="M90.3516 22.6484L90.2101 22.7899L90.3516 22.6484ZM85.6406 17.9375L85.4871 17.8093L85.3699 17.9496L85.4992 18.0789L85.6406 17.9375ZM86.6328 16.2422L86.4464 16.1698L86.4461 16.1706L86.6328 16.2422ZM86.7891 12.7344L86.5963 12.7877L86.597 12.7901L86.7891 12.7344ZM85.3047 10.1953L85.1622 10.3357L85.1643 10.3378L85.3047 10.1953ZM82.7656 8.71094L82.7099 8.90302L82.7123 8.9037L82.7656 8.71094ZM79.0234 8.96094L79.1034 9.14426L79.104 9.14398L79.0234 8.96094ZM77.1953 10.2031L77.0539 10.0617L77.1953 10.2031ZM75.9531 12.0312L75.7701 11.9507L75.7698 11.9513L75.9531 12.0312ZM75.7031 15.7656L75.5103 15.8189L75.5111 15.8214L75.7031 15.7656ZM76.2891 17.1328L76.1164 17.2339L76.1179 17.2363L76.2891 17.1328ZM78.3672 19.2109L78.2637 19.3821L78.2662 19.3835L78.3672 19.2109ZM79.7344 19.7969L79.6786 19.989L79.6811 19.9896L79.7344 19.7969ZM83.2344 19.6406L83.306 19.8274L83.3068 19.8271L83.2344 19.6406ZM84.9375 18.6406L85.0789 18.4992L84.9496 18.3699L84.8093 18.4871L84.9375 18.6406ZM89.6484 23.3516L89.507 23.493L89.6484 23.3516ZM76.875 12.4219L76.692 12.3411L76.6917 12.3419L76.875 12.4219ZM79.4141 9.88281L79.4941 10.0661L79.4948 10.0658L79.4141 9.88281ZM83.0781 9.88281L82.9967 10.0655L82.9987 10.0664L83.0781 9.88281ZM85.6172 12.4219L85.4336 12.5013L85.4345 12.5033L85.6172 12.4219ZM85.6172 16.0859L85.4342 16.0052L85.4339 16.0059L85.6172 16.0859ZM83.0781 18.625L83.1581 18.8083L83.1589 18.808L83.0781 18.625ZM79.4141 18.625L79.3327 18.8077L79.3347 18.8086L79.4141 18.625ZM76.875 16.0859L76.6914 16.1653L76.6923 16.1673L76.875 16.0859ZM90.493 22.507L85.782 17.7961L85.4992 18.0789L90.2101 22.7899L90.493 22.507ZM85.7941 18.0657C86.2304 17.5433 86.5722 16.959 86.8196 16.3138L86.4461 16.1706C86.2142 16.7754 85.8946 17.3213 85.4871 17.8093L85.7941 18.0657ZM86.8192 16.3146C87.0733 15.6606 87.2 14.9719 87.2 14.25H86.8C86.8 14.924 86.6819 15.5634 86.4464 16.1698L86.8192 16.3146ZM87.2 14.25C87.2 13.7059 87.1272 13.1819 86.9811 12.6786L86.597 12.7901C86.7321 13.2556 86.8 13.742 86.8 14.25H87.2ZM86.9818 12.6811C86.8419 12.1752 86.6425 11.7008 86.3835 11.2583L86.0383 11.4604C86.2793 11.8721 86.4654 12.3144 86.5963 12.7877L86.9818 12.6811ZM86.3835 11.2583C86.1246 10.816 85.8117 10.4141 85.4451 10.0528L85.1643 10.3378C85.506 10.6745 85.7973 11.0486 86.0383 11.4604L86.3835 11.2583ZM85.4472 10.0549C85.0859 9.68832 84.684 9.37538 84.2417 9.11646L84.0396 9.46167C84.4514 9.70275 84.8255 9.99397 85.1622 10.3357L85.4472 10.0549ZM84.2417 9.11646C83.7992 8.85747 83.3248 8.65809 82.8189 8.51818L82.7123 8.9037C83.1856 9.03462 83.6279 9.22066 84.0396 9.46167L84.2417 9.11646ZM82.8214 8.51887C82.3181 8.37276 81.7941 8.3 81.25 8.3V8.7C81.758 8.7 82.2444 8.76786 82.7099 8.90301L82.8214 8.51887ZM81.25 8.3C80.4367 8.3 79.667 8.45907 78.9428 8.77789L79.104 9.14398C79.7757 8.84822 80.4904 8.7 81.25 8.7V8.3ZM78.9435 8.77761C78.2282 9.08953 77.5979 9.51769 77.0539 10.0617L77.3367 10.3445C77.8448 9.83648 78.4332 9.43651 79.1034 9.14426L78.9435 8.77761ZM77.0539 10.0617C76.5149 10.6007 76.087 11.2309 75.7701 11.9507L76.1362 12.1118C76.4338 11.4358 76.834 10.8472 77.3367 10.3445L77.0539 10.0617ZM75.7698 11.9513C75.4563 12.6703 75.3 13.4372 75.3 14.25H75.7C75.7 13.4899 75.8458 12.7777 76.1365 12.1112L75.7698 11.9513ZM75.3 14.25C75.3 14.7884 75.37 15.3116 75.5104 15.8189L75.8959 15.7123C75.7654 15.2405 75.7 14.7533 75.7 14.25H75.3ZM75.5111 15.8214C75.6562 16.3213 75.858 16.7923 76.1165 17.2338L76.4617 17.0318C76.2202 16.6192 76.0313 16.1787 75.8952 15.7099L75.5111 15.8214ZM76.1179 17.2363C76.3816 17.6722 76.6963 18.0729 77.0617 18.4383L77.3445 18.1555C77.0016 17.8125 76.7069 17.4372 76.4602 17.0293L76.1179 17.2363ZM77.0617 18.4383C77.4271 18.8037 77.8278 19.1184 78.2637 19.3821L78.4707 19.0398C78.0628 18.7931 77.6875 18.4984 77.3445 18.1555L77.0617 18.4383ZM78.2662 19.3835C78.7077 19.642 79.1787 19.8438 79.6786 19.9889L79.7901 19.6048C79.3213 19.4687 78.8808 19.2798 78.4682 19.0383L78.2662 19.3835ZM79.6811 19.9896C80.1884 20.13 80.7116 20.2 81.25 20.2V19.8C80.7467 19.8 80.2595 19.7346 79.7877 19.6041L79.6811 19.9896ZM81.25 20.2C81.9713 20.2 82.6571 20.0761 83.306 19.8274L83.1628 19.4539C82.5616 19.6843 81.9245 19.8 81.25 19.8V20.2ZM83.3068 19.8271C83.9567 19.5746 84.5434 19.2303 85.0657 18.7941L84.8093 18.4871C84.3212 18.8947 83.7725 19.2171 83.162 19.4542L83.3068 19.8271ZM84.7961 18.782L89.507 23.493L89.7899 23.2101L85.0789 18.4992L84.7961 18.782ZM89.507 23.493C89.6421 23.628 89.8096 23.7 90 23.7V23.3C89.9196 23.3 89.8527 23.273 89.7899 23.2101L89.507 23.493ZM90 23.7C90.1904 23.7 90.3579 23.628 90.493 23.493L90.2101 23.2101C90.1473 23.273 90.0804 23.3 90 23.3V23.7ZM90.493 23.493C90.628 23.3579 90.7 23.1904 90.7 23H90.3C90.3 23.0804 90.273 23.1473 90.2101 23.2101L90.493 23.493ZM90.7 23C90.7 22.8096 90.628 22.6421 90.493 22.507L90.2101 22.7899C90.273 22.8527 90.3 22.9196 90.3 23H90.7ZM76.7 14.25C76.7 13.6308 76.8197 13.0487 77.0583 12.5019L76.6917 12.3419C76.4303 12.9409 76.3 13.5776 76.3 14.25H76.7ZM77.058 12.5026C77.3035 11.9464 77.6334 11.4619 78.0477 11.0477L77.7648 10.7648C77.3145 11.2152 76.9569 11.7411 76.692 12.3411L77.058 12.5026ZM78.0477 11.0477C78.4619 10.6335 78.9435 10.3064 79.4941 10.0661L79.3341 9.6995C78.7388 9.95927 78.2152 10.3145 77.7648 10.7648L78.0477 11.0477ZM79.4948 10.0658C80.0469 9.82205 80.6314 9.7 81.25 9.7V9.3C80.577 9.3 79.9374 9.43315 79.3333 9.69985L79.4948 10.0658ZM81.25 9.7C81.8686 9.7 82.4502 9.82205 82.9967 10.0655L83.1595 9.70012C82.5602 9.43316 81.923 9.3 81.25 9.3V9.7ZM82.9987 10.0664C83.5544 10.3067 84.0384 10.6338 84.4523 11.0477L84.7352 10.7648C84.2845 10.3142 83.7581 9.95894 83.1575 9.69924L82.9987 10.0664ZM84.4523 11.0477C84.8662 11.4616 85.1933 11.9456 85.4336 12.5013L85.8008 12.3425C85.5411 11.7419 85.1858 11.2155 84.7352 10.7648L84.4523 11.0477ZM85.4345 12.5033C85.6779 13.0498 85.8 13.6314 85.8 14.25H86.2C86.2 13.577 86.0668 12.9398 85.7999 12.3405L85.4345 12.5033ZM85.8 14.25C85.8 14.8686 85.6779 15.4531 85.4342 16.0052L85.8002 16.1667C86.0668 15.5626 86.2 14.923 86.2 14.25H85.8ZM85.4339 16.0059C85.1936 16.5565 84.8665 17.0381 84.4523 17.4523L84.7352 17.7352C85.1855 17.2848 85.5407 16.7612 85.8005 16.1659L85.4339 16.0059ZM84.4523 17.4523C84.0381 17.8666 83.5536 18.1965 82.9974 18.442L83.1589 18.808C83.7589 18.5431 84.2848 18.1855 84.7352 17.7352L84.4523 17.4523ZM82.9981 18.4417C82.4513 18.6803 81.8692 18.8 81.25 18.8V19.2C81.9224 19.2 82.5591 19.0697 83.1581 18.8083L82.9981 18.4417ZM81.25 18.8C80.6308 18.8 80.0459 18.6803 79.4934 18.4414L79.3347 18.8086C79.9385 19.0697 80.5776 19.2 81.25 19.2V18.8ZM79.4954 18.4423C78.9443 18.1968 78.4622 17.8669 78.0477 17.4523L77.7648 17.7352C78.2149 18.1852 78.738 18.5428 79.3327 18.8077L79.4954 18.4423ZM78.0477 17.4523C77.6331 17.0378 77.3032 16.5557 77.0577 16.0046L76.6923 16.1673C76.9572 16.762 77.3148 17.2851 77.7648 17.7352L78.0477 17.4523ZM77.0586 16.0066C76.8197 15.4541 76.7 14.8692 76.7 14.25H76.3C76.3 14.9224 76.4303 15.5615 76.6914 16.1653L77.0586 16.0066Z" fill="url(#paint1_linear)"/>
<path d="M99.8271 20.6035V19.25C99.9821 19.3867 100.167 19.5098 100.381 19.6191C100.6 19.7285 100.827 19.8219 101.064 19.8994C101.306 19.9723 101.548 20.0293 101.789 20.0703C102.031 20.1113 102.254 20.1318 102.459 20.1318C103.165 20.1318 103.692 20.002 104.038 19.7422C104.389 19.4779 104.564 19.0996 104.564 18.6074C104.564 18.3431 104.505 18.113 104.387 17.917C104.273 17.721 104.113 17.5433 103.908 17.3838C103.703 17.2197 103.459 17.0648 103.177 16.9189C102.899 16.7686 102.598 16.6113 102.274 16.4473C101.933 16.2741 101.614 16.0986 101.317 15.9209C101.021 15.7432 100.764 15.5472 100.545 15.333C100.326 15.1188 100.153 14.8773 100.025 14.6084C99.9023 14.335 99.8408 14.016 99.8408 13.6514C99.8408 13.2048 99.9388 12.8174 100.135 12.4893C100.331 12.1566 100.588 11.8831 100.907 11.6689C101.226 11.4548 101.589 11.2952 101.994 11.1904C102.404 11.0856 102.821 11.0332 103.245 11.0332C104.211 11.0332 104.915 11.1494 105.357 11.3818V12.6738C104.779 12.2728 104.036 12.0723 103.129 12.0723C102.878 12.0723 102.628 12.0996 102.377 12.1543C102.126 12.2044 101.903 12.2887 101.707 12.4072C101.511 12.5257 101.352 12.6784 101.229 12.8652C101.105 13.0521 101.044 13.2799 101.044 13.5488C101.044 13.7995 101.09 14.016 101.181 14.1982C101.276 14.3805 101.415 14.5469 101.598 14.6973C101.78 14.8477 102.001 14.9935 102.261 15.1348C102.525 15.276 102.828 15.431 103.17 15.5996C103.521 15.7728 103.854 15.9551 104.168 16.1465C104.482 16.3379 104.758 16.5498 104.995 16.7822C105.232 17.0146 105.419 17.2721 105.556 17.5547C105.697 17.8372 105.768 18.1608 105.768 18.5254C105.768 19.0085 105.672 19.4186 105.48 19.7559C105.294 20.0885 105.038 20.3597 104.715 20.5693C104.396 20.779 104.027 20.9294 103.607 21.0205C103.188 21.1162 102.746 21.1641 102.281 21.1641C102.126 21.1641 101.935 21.1504 101.707 21.123C101.479 21.1003 101.247 21.0638 101.01 21.0137C100.773 20.9681 100.547 20.9111 100.333 20.8428C100.123 20.7699 99.9548 20.6901 99.8271 20.6035ZM113.198 17.7803H108.256C108.274 18.5596 108.484 19.1611 108.885 19.585C109.286 20.0088 109.837 20.2207 110.539 20.2207C111.327 20.2207 112.052 19.9609 112.713 19.4414V20.4941C112.098 20.9408 111.284 21.1641 110.272 21.1641C109.284 21.1641 108.507 20.8473 107.941 20.2139C107.376 19.5758 107.094 18.6803 107.094 17.5273C107.094 16.4382 107.401 15.5518 108.017 14.8682C108.636 14.18 109.404 13.8359 110.32 13.8359C111.236 13.8359 111.945 14.1322 112.446 14.7246C112.948 15.3171 113.198 16.1396 113.198 17.1924V17.7803ZM112.05 16.8301C112.045 16.1829 111.888 15.6794 111.578 15.3193C111.273 14.9593 110.847 14.7793 110.3 14.7793C109.771 14.7793 109.322 14.9684 108.953 15.3467C108.584 15.7249 108.356 16.2194 108.27 16.8301H112.05ZM119.911 21H118.79V19.9062H118.763C118.275 20.7448 117.557 21.1641 116.609 21.1641C115.912 21.1641 115.365 20.9795 114.969 20.6104C114.577 20.2412 114.381 19.7513 114.381 19.1406C114.381 17.8327 115.151 17.0716 116.691 16.8574L118.79 16.5635C118.79 15.374 118.309 14.7793 117.348 14.7793C116.505 14.7793 115.743 15.0664 115.064 15.6406V14.4922C115.753 14.0547 116.546 13.8359 117.443 13.8359C119.089 13.8359 119.911 14.7064 119.911 16.4473V21ZM118.79 17.459L117.102 17.6914C116.582 17.7643 116.19 17.8942 115.926 18.0811C115.661 18.2633 115.529 18.5892 115.529 19.0586C115.529 19.4004 115.65 19.6807 115.892 19.8994C116.138 20.1136 116.464 20.2207 116.869 20.2207C117.425 20.2207 117.883 20.027 118.243 19.6396C118.608 19.2477 118.79 18.7533 118.79 18.1562V17.459ZM125.674 15.1348C125.478 14.9844 125.195 14.9092 124.826 14.9092C124.348 14.9092 123.947 15.1348 123.623 15.5859C123.304 16.0371 123.145 16.6523 123.145 17.4316V21H122.023V14H123.145V15.4424H123.172C123.331 14.9502 123.575 14.5674 123.903 14.2939C124.231 14.016 124.598 13.877 125.004 13.877C125.296 13.877 125.519 13.9089 125.674 13.9727V15.1348ZM131.662 20.6787C131.124 21.0023 130.486 21.1641 129.748 21.1641C128.75 21.1641 127.943 20.8405 127.328 20.1934C126.717 19.5417 126.412 18.6986 126.412 17.6641C126.412 16.5111 126.743 15.5859 127.403 14.8887C128.064 14.1868 128.946 13.8359 130.049 13.8359C130.664 13.8359 131.206 13.9499 131.676 14.1777V15.3262C131.156 14.9616 130.6 14.7793 130.008 14.7793C129.292 14.7793 128.704 15.0368 128.244 15.5518C127.788 16.0622 127.561 16.7344 127.561 17.5684C127.561 18.3887 127.775 19.0358 128.203 19.5098C128.636 19.9837 129.215 20.2207 129.939 20.2207C130.55 20.2207 131.124 20.0179 131.662 19.6123V20.6787ZM139.168 21H138.047V16.9668C138.047 15.5085 137.505 14.7793 136.42 14.7793C135.873 14.7793 135.413 14.9912 135.039 15.415C134.665 15.8343 134.479 16.3743 134.479 17.0352V21H133.357V10.6367H134.479V15.1621H134.506C135.044 14.278 135.809 13.8359 136.803 13.8359C138.38 13.8359 139.168 14.7861 139.168 16.6865V21Z" fill="#444444" fill-opacity="0.5"/>
<path d="M10.4922 10.5C10.6328 10.5 10.75 10.5469 10.8438 10.6406C10.9427 10.7344 10.9922 10.8516 10.9922 10.9922C10.9922 11.1328 10.9427 11.2526 10.8438 11.3516L6.19531 16L10.8438 20.6406C10.9427 20.7396 10.9922 20.8568 10.9922 20.9922C10.9922 21.1276 10.9427 21.2474 10.8438 21.3516C10.75 21.4505 10.6328 21.5 10.4922 21.5C10.3568 21.5 10.2396 21.4505 10.1406 21.3516L5.14062 16.3516C5.04167 16.2526 4.99219 16.1328 4.99219 15.9922C4.99219 15.8568 5.04167 15.7396 5.14062 15.6406L10.1406 10.6406C10.2344 10.5469 10.3516 10.5 10.4922 10.5Z" fill="white"/>
<path d="M29.5078 10.5C29.3672 10.5 29.25 10.5469 29.1562 10.6406C29.0573 10.7344 29.0078 10.8516 29.0078 10.9922C29.0078 11.1328 29.0573 11.2526 29.1562 11.3516L33.8047 16L29.1562 20.6406C29.0573 20.7396 29.0078 20.8568 29.0078 20.9922C29.0078 21.1276 29.0573 21.2474 29.1562 21.3516C29.25 21.4505 29.3672 21.5 29.5078 21.5C29.6432 21.5 29.7604 21.4505 29.8594 21.3516L34.8594 16.3516C34.9583 16.2526 35.0078 16.1328 35.0078 15.9922C35.0078 15.8568 34.9583 15.7396 34.8594 15.6406L29.8594 10.6406C29.7656 10.5469 29.6484 10.5 29.5078 10.5Z" fill="white"/>
<defs>
<linearGradient id="paint0_linear" x1="83" y1="8" x2="83" y2="24" gradientUnits="userSpaceOnUse">
<stop stop-color="#647DEE"/>
<stop offset="1" stop-color="#7F53AC"/>
</linearGradient>
<linearGradient id="paint1_linear" x1="83" y1="8" x2="83" y2="24" gradientUnits="userSpaceOnUse">
<stop stop-color="#647DEE"/>
<stop offset="1" stop-color="#7F53AC"/>
</linearGradient>
</defs>
</svg>
