<svg width="24" height="24" viewBox="0 0 24 24" fill="none" xmlns="http://www.w3.org/2000/svg">
<path d="M12 0C9.62663 0 7.30655 0.703788 5.33316 2.02237C3.35977 3.34094 1.8217 5.21509 0.913451 7.4078C0.00519937 9.60051 -0.232441 12.0133 0.230582 14.3411C0.693605 16.6689 1.83649 18.8071 3.51472 20.4853C5.19295 22.1635 7.33115 23.3064 9.65892 23.7694C11.9867 24.2324 14.3995 23.9948 16.5922 23.0866C18.7849 22.1783 20.6591 20.6402 21.9776 18.6668C23.2962 16.6935 24 14.3734 24 12C23.9965 8.81848 22.7311 5.76827 20.4814 3.51859C18.2317 1.26891 15.1815 0.00350485 12 0ZM5.00276 20.4687C2.34621 20.4687 6.90621 22.0411 5.00276 20.4687C5.38518 19.4129 6.08208 18.4996 6.99952 17.8521C7.91697 17.2046 9.01087 16.8538 10.1338 16.8472H7.55835C9.86649 16.8472 4.23228 18.312 5.00276 20.4687C6.60414 20.4687 4.25214 21.0861 5.00276 20.4687ZM19.7744 19.7611C19.271 18.6004 18.4406 17.6113 17.3845 16.9146C16.3285 16.2179 15.0925 15.8436 13.8273 15.8375H10.1371C8.87675 15.8441 7.64544 16.2166 6.59279 16.9097C5.54013 17.6029 4.71146 18.5869 4.20745 19.7421C2.67574 18.2018 1.63481 16.2422 1.21612 14.1107C0.797441 11.9792 1.01979 9.77143 1.85508 7.76622C2.69037 5.76102 4.10114 4.04831 5.90922 2.8444C7.71731 1.64049 9.84161 0.999378 12.0138 1.00203C14.1861 1.00469 16.3088 1.65099 18.1139 2.85932C19.919 4.06765 21.3256 5.7838 22.156 7.79105C22.9864 9.79829 23.2033 12.0066 22.7794 14.1371C22.3556 16.2675 21.3098 18.2246 19.7744 19.7611Z" fill="url(#paint0_linear)"/>
<path d="M11.999 5.84375C11.0526 5.84375 10.1274 6.12439 9.34051 6.65018C8.55361 7.17598 7.94029 7.92331 7.57811 8.79767C7.21594 9.67204 7.12118 10.6342 7.30581 11.5624C7.49045 12.4906 7.94618 13.3432 8.61539 14.0124C9.2846 14.6816 10.1372 15.1374 11.0654 15.322C11.9937 15.5066 12.9558 15.4119 13.8302 15.0497C14.7045 14.6875 15.4518 14.0742 15.9776 13.2873C16.5034 12.5004 16.7841 11.5753 16.7841 10.6289C16.7825 9.36023 16.2779 8.14401 15.3809 7.24697C14.4838 6.34992 13.2676 5.84528 11.999 5.84375Z" fill="url(#paint1_linear)"/>
<defs>
<linearGradient id="paint0_linear" x1="12" y1="0" x2="12" y2="24" gradientUnits="userSpaceOnUse">
<stop stop-color="#647DEE"/>
<stop offset="1" stop-color="#7F53AC"/>
</linearGradient>
<linearGradient id="paint1_linear" x1="11.999" y1="5.84375" x2="11.999" y2="15.414" gradientUnits="userSpaceOnUse">
<stop stop-color="#647DEE"/>
<stop offset="1" stop-color="#7F53AC"/>
</linearGradient>
</defs>
</svg>
