<svg width="23" height="25" viewBox="0 0 23 25" fill="none" xmlns="http://www.w3.org/2000/svg">
<path d="M22.0898 13.3063C22.0949 15.3111 21.5543 17.2794 20.5259 19.0003C19.4975 20.7211 18.0201 22.1297 16.2521 23.0748C14.4841 24.0199 12.4923 24.4661 10.49 24.3654C8.48783 24.2647 6.55078 23.6209 4.88658 22.5031C3.22238 21.3853 1.8938 19.8356 1.04328 18.0203C0.192753 16.2049 -0.147635 14.1922 0.0586091 12.1981C0.264853 10.204 1.00995 8.30363 2.21401 6.70074C3.41808 5.09786 5.0357 3.85291 6.89344 3.09938C7.16145 3.00797 7.45428 3.02259 7.71184 3.14024C7.96941 3.25789 8.17219 3.46965 8.27857 3.73208C8.38496 3.9945 8.38688 4.28769 8.28394 4.55148C8.181 4.81528 7.98102 5.02968 7.72501 5.15069C5.82913 5.92204 4.26026 7.32832 3.2869 9.12885C2.31353 10.9294 1.99619 13.0122 2.38918 15.0209C2.78216 17.0296 3.86105 18.8393 5.44119 20.1403C7.02134 21.4413 9.0045 22.1526 11.0513 22.1526C13.0981 22.1526 15.0812 21.4413 16.6614 20.1403C18.2415 18.8393 19.3204 17.0296 19.7134 15.0209C20.1064 13.0122 19.7891 10.9294 18.8157 9.12885C17.8423 7.32832 16.2735 5.92204 14.3776 5.15069C14.2348 5.102 14.1035 5.02469 13.9917 4.92348C13.8798 4.82228 13.7898 4.69931 13.7271 4.56211C13.6645 4.42491 13.6305 4.27636 13.6272 4.12557C13.6239 3.97477 13.6515 3.82489 13.7081 3.6851C13.7648 3.54531 13.8494 3.41856 13.9567 3.31261C14.0641 3.20665 14.1919 3.12372 14.3325 3.06889C14.473 3.01406 14.6232 2.98848 14.7739 2.99372C14.9247 2.99897 15.0728 3.03492 15.2091 3.09938C17.2451 3.91774 18.9891 5.32752 20.216 7.14677C21.4429 8.96602 22.0965 11.1112 22.0922 13.3055L22.0898 13.3063ZM11.0449 12.586C11.3389 12.586 11.6208 12.4692 11.8287 12.2613C12.0366 12.0535 12.1534 11.7715 12.1534 11.4775V1.10889C12.1534 0.814797 12.0366 0.532746 11.8286 0.324788C11.6206 0.11683 11.3386 0 11.0445 0C10.7504 0 10.4683 0.11683 10.2604 0.324788C10.0524 0.532746 9.9356 0.814797 9.9356 1.10889V11.4767C9.9356 11.6224 9.96432 11.7667 10.0201 11.9013C10.0759 12.0359 10.1577 12.1581 10.2608 12.2611C10.3639 12.3641 10.4863 12.4457 10.621 12.5013C10.7557 12.5569 10.9 12.5854 11.0457 12.5852L11.0449 12.586Z" fill="url(#paint0_radial)"/>
<defs>
<radialGradient id="paint0_radial" cx="0" cy="0" r="1" gradientUnits="userSpaceOnUse" gradientTransform="translate(11.0461 12.1897) scale(11.0461 12.1897)">
<stop stop-color="#FE9090"/>
<stop offset="1" stop-color="#F46B6B"/>
</radialGradient>
</defs>
</svg>
