<svg width="48" height="48" viewBox="0 0 48 48" fill="none" xmlns="http://www.w3.org/2000/svg">
<path d="M43.2067 1H4.83697C2.71787 1 1 2.71787 1 4.83697V43.2067C1 45.3258 2.71787 47.0437 4.83697 47.0437H43.2067C45.3258 47.0437 47.0437 45.3258 47.0437 43.2067V4.83697C47.0437 2.71787 45.3258 1 43.2067 1Z" fill="#FBFBFB"/>
<path d="M43.2061 1.04773H4.83637C2.74376 1.04773 1.04736 2.74413 1.04736 4.83674V43.2065C1.04736 45.2991 2.74376 46.9955 4.83637 46.9955H43.2061C45.2987 46.9955 46.9951 45.2991 46.9951 43.2065V4.83674C46.9951 2.74413 45.2987 1.04773 43.2061 1.04773Z" stroke="#707070" stroke-width="0.1"/>
<path d="M19.8931 21H21.791V11.8403H19.8867L17.519 13.4844V15.2109L19.855 13.5986H19.8931V21ZM23.7397 14.5952V14.627H25.5171V14.5952C25.5171 13.751 26.1709 13.1289 27.0596 13.1289C27.9102 13.1289 28.5132 13.6748 28.5132 14.3604C28.5132 14.9951 28.2275 15.4585 27.3008 16.3853L23.8477 19.7114V21H30.5063V19.4766H26.374V19.4385L28.6084 17.2866C29.6177 16.2837 30.3794 15.4268 30.3794 14.2842C30.3794 12.7544 29.0527 11.6372 27.123 11.6372C25.1235 11.6372 23.7397 12.8623 23.7397 14.5952ZM15.6782 30.7412H15.7354L17.4746 37H19.2837L21.7148 27.8403H19.728L18.2808 34.4736H18.23L16.5161 27.8403H14.8975L13.1836 34.4736H13.1328L11.6919 27.8403H9.70508L12.1299 37H13.939L15.6782 30.7412ZM28.8179 35.4131H24.6665V33.1025H28.583V31.6299H24.6665V29.4209H28.8179V27.8403H22.7495V37H28.8179V35.4131ZM30.2017 27.8403V37H33.731C36.4795 37 38.0981 35.2925 38.0981 32.3853C38.0981 29.478 36.4795 27.8403 33.731 27.8403H30.2017ZM32.1187 29.4209H33.5024C35.1909 29.4209 36.1431 30.4746 36.1431 32.3916C36.1431 34.3721 35.2163 35.4131 33.5024 35.4131H32.1187V29.4209Z" fill="#444444"/>
</svg>
