<svg width="26" height="26" viewBox="0 0 26 26" fill="none" xmlns="http://www.w3.org/2000/svg">
<path d="M12.7661 24.9181C19.2644 24.9181 24.5323 19.5638 24.5323 12.959C24.5323 6.35424 19.2644 1 12.7661 1C6.26788 1 1 6.35424 1 12.959C1 19.5638 6.26788 24.9181 12.7661 24.9181Z" fill="url(#paint0_linear)" stroke="white"/>
<path d="M12.7661 24.9181C19.2644 24.9181 24.5323 19.5638 24.5323 12.959C24.5323 6.35424 19.2644 1 12.7661 1C6.26788 1 1 6.35424 1 12.959C1 19.5638 6.26788 24.9181 12.7661 24.9181Z" fill="url(#paint1_linear)"/>
<path d="M16.4308 12.5737H9.48685C9.27379 12.5737 9.10107 12.7464 9.10107 12.9595C9.10107 13.1726 9.27379 13.3453 9.48685 13.3453H16.4308C16.6439 13.3453 16.8166 13.1726 16.8166 12.9595C16.8166 12.7464 16.6439 12.5737 16.4308 12.5737Z" fill="white"/>
<path d="M16.4308 12.7666H9.48683C9.3803 12.7666 9.29395 12.853 9.29395 12.9595C9.29395 13.066 9.3803 13.1524 9.48683 13.1524H16.4308C16.5373 13.1524 16.6237 13.066 16.6237 12.9595C16.6237 12.853 16.5373 12.7666 16.4308 12.7666Z" stroke="white"/>
<path d="M13.3447 16.4313V9.48734C13.3447 9.27428 13.172 9.10156 12.959 9.10156C12.7459 9.10156 12.5732 9.27428 12.5732 9.48734V16.4313C12.5732 16.6444 12.7459 16.8171 12.959 16.8171C13.172 16.8171 13.3447 16.6444 13.3447 16.4313Z" fill="white"/>
<path d="M13.1519 16.4313V9.48732C13.1519 9.38079 13.0655 9.29443 12.959 9.29443C12.8524 9.29443 12.7661 9.38079 12.7661 9.48732V16.4313C12.7661 16.5378 12.8524 16.6242 12.959 16.6242C13.0655 16.6242 13.1519 16.5378 13.1519 16.4313Z" stroke="white"/>
<defs>
<linearGradient id="paint0_linear" x1="12.7661" y1="1" x2="12.7661" y2="24.9181" gradientUnits="userSpaceOnUse">
<stop stop-color="#009FFD"/>
<stop offset="0.582" stop-color="#607EEF"/>
<stop offset="1" stop-color="#647DEE"/>
</linearGradient>
<linearGradient id="paint1_linear" x1="12.7661" y1="1" x2="12.7661" y2="24.9181" gradientUnits="userSpaceOnUse">
<stop stop-color="#647DEE"/>
<stop offset="1" stop-color="#7F53AC"/>
</linearGradient>
</defs>
</svg>
