<svg width="7" height="12" viewBox="0 0 7 12" fill="none" xmlns="http://www.w3.org/2000/svg">
<path d="M5.99219 0.5C6.13281 0.5 6.25 0.546875 6.34375 0.640625C6.44271 0.734375 6.49219 0.851562 6.49219 0.992188C6.49219 1.13281 6.44271 1.2526 6.34375 1.35156L1.69531 6L6.34375 10.6406C6.44271 10.7396 6.49219 10.8568 6.49219 10.9922C6.49219 11.1276 6.44271 11.2474 6.34375 11.3516C6.25 11.4505 6.13281 11.5 5.99219 11.5C5.85677 11.5 5.73958 11.4505 5.64062 11.3516L0.640625 6.35156C0.541667 6.2526 0.492188 6.13281 0.492188 5.99219C0.492188 5.85677 0.541667 5.73958 0.640625 5.64062L5.64062 0.640625C5.73438 0.546875 5.85156 0.5 5.99219 0.5Z" fill="url(#paint0_linear)"/>
<path d="M6.34375 0.640625L6.20228 0.782098L6.2062 0.785816L6.34375 0.640625ZM1.69531 6L1.55389 5.85858L1.41235 6.00012L1.55401 6.14154L1.69531 6ZM6.34375 10.6406L6.48517 10.4992L6.48505 10.4991L6.34375 10.6406ZM6.34375 11.3516L6.19875 11.2138L6.19856 11.214L6.34375 11.3516ZM5.64062 11.3516L5.4992 11.493L5.64062 11.3516ZM0.640625 5.64062L0.499204 5.4992L0.640625 5.64062ZM5.99219 0.7C6.08334 0.7 6.14854 0.728255 6.20233 0.782046L6.48517 0.499204C6.35146 0.365495 6.18228 0.3 5.99219 0.3V0.7ZM6.2062 0.785816C6.26389 0.84047 6.29219 0.904523 6.29219 0.992188H6.69219C6.69219 0.798602 6.62153 0.62828 6.4813 0.495434L6.2062 0.785816ZM6.29219 0.992188C6.29219 1.08006 6.26358 1.14889 6.20233 1.21014L6.48517 1.49298C6.62184 1.35631 6.69219 1.18557 6.69219 0.992188H6.29219ZM6.20233 1.21014L1.55389 5.85858L1.83673 6.14142L6.48517 1.49298L6.20233 1.21014ZM1.55401 6.14154L6.20245 10.7822L6.48505 10.4991L1.83661 5.85846L1.55401 6.14154ZM6.20233 10.782C6.26518 10.8449 6.29219 10.9118 6.29219 10.9922H6.69219C6.69219 10.8018 6.62023 10.6343 6.48517 10.4992L6.20233 10.782ZM6.29219 10.9922C6.29219 11.073 6.26477 11.1443 6.19875 11.2138L6.48875 11.4893C6.62065 11.3505 6.69219 11.1822 6.69219 10.9922H6.29219ZM6.19856 11.214C6.14391 11.2717 6.07985 11.3 5.99219 11.3V11.7C6.18577 11.7 6.35609 11.6293 6.48894 11.4891L6.19856 11.214ZM5.99219 11.3C5.91177 11.3 5.8449 11.273 5.78205 11.2101L5.4992 11.493C5.63427 11.628 5.80178 11.7 5.99219 11.7V11.3ZM5.78205 11.2101L0.782046 6.21014L0.499204 6.49298L5.4992 11.493L5.78205 11.2101ZM0.782046 6.21014C0.720799 6.14889 0.692188 6.08006 0.692188 5.99219H0.292187C0.292187 6.18557 0.362534 6.35631 0.499204 6.49298L0.782046 6.21014ZM0.692188 5.99219C0.692188 5.91177 0.719193 5.8449 0.782046 5.78205L0.499204 5.4992C0.364141 5.63427 0.292187 5.80178 0.292187 5.99219H0.692188ZM0.782046 5.78205L5.78205 0.782046L5.4992 0.499204L0.499204 5.4992L0.782046 5.78205ZM5.78205 0.782046C5.83584 0.728255 5.90103 0.7 5.99219 0.7V0.3C5.80209 0.3 5.63291 0.365495 5.4992 0.499204L5.78205 0.782046Z" fill="url(#paint1_linear)"/>
<defs>
<linearGradient id="paint0_linear" x1="3.5" y1="-2" x2="3.5" y2="14" gradientUnits="userSpaceOnUse">
<stop stop-color="#647DEE"/>
<stop offset="1" stop-color="#7F53AC"/>
</linearGradient>
<linearGradient id="paint1_linear" x1="3.5" y1="-2" x2="3.5" y2="14" gradientUnits="userSpaceOnUse">
<stop stop-color="#647DEE"/>
<stop offset="1" stop-color="#7F53AC"/>
</linearGradient>
</defs>
</svg>
