<svg width="22" height="24" viewBox="0 0 22 24" fill="none" xmlns="http://www.w3.org/2000/svg">
<path d="M8.36422 20.8809C8.3475 21.2361 8.4034 21.5909 8.52854 21.9239C8.65369 22.2569 8.84547 22.5612 9.0923 22.8184C9.33912 23.0756 9.63586 23.2804 9.96455 23.4202C10.2932 23.5601 10.647 23.6322 11.0046 23.6322C11.3621 23.6322 11.7159 23.5601 12.0446 23.4202C12.3733 23.2804 12.67 23.0756 12.9169 22.8184C13.1637 22.5612 13.3555 22.2569 13.4806 21.9239C13.6058 21.5909 13.6617 21.2361 13.6449 20.8809V20.6958H8.36422V20.8809Z" fill="url(#paint0_linear)"/>
<path d="M21.2554 18.2267C21.2539 17.7515 21.0697 17.2949 20.7406 16.9503C20.4115 16.6058 19.9624 16.3994 19.4852 16.3735C18.4159 14.4992 17.7891 12.4078 17.6523 10.2573L17.5278 8.65148V8.55556C16.3071 8.34506 15.2007 7.71164 14.4047 6.76755C13.6087 5.82346 13.1745 4.62965 13.179 3.39767C13.1842 3.11889 13.2048 2.8406 13.2408 2.56408C13.0854 2.50269 12.961 2.46815 12.8057 2.40964C12.8414 2.2784 12.8621 2.14357 12.8674 2.00771V1.85327C12.8674 1.36175 12.6711 0.890367 12.3215 0.542811C11.972 0.195255 11.498 0 11.0036 0C10.5093 0 10.0353 0.195255 9.68576 0.542811C9.33623 0.890367 9.13987 1.36175 9.13987 1.85327V2.00771C9.14278 2.14379 9.16353 2.2789 9.20161 2.40964C7.84227 2.80124 6.64732 3.62064 5.79606 4.74487C4.94481 5.8691 4.48317 7.23751 4.48042 8.64477L4.35598 10.2506C4.20317 12.3982 3.57743 14.4862 2.52307 16.3667C2.03517 16.3886 1.57537 16.5999 1.24248 16.9552C0.909584 17.3106 0.730177 17.7816 0.742812 18.2671C0.755448 18.7525 0.959118 19.2137 1.31005 19.5514C1.66098 19.8892 2.13116 20.0766 2.61954 20.0733H19.3916C19.8843 20.0718 20.3564 19.877 20.7055 19.5312C21.0545 19.1854 21.2521 18.7166 21.2554 18.2267Z" fill="url(#paint1_linear)"/>
<path d="M0.755859 18.2267C0.757362 17.7515 0.941529 17.2949 1.27064 16.9503C1.59975 16.6058 2.04889 16.3994 2.52606 16.3735C3.59539 14.4992 4.22216 12.4078 4.35897 10.2573L4.48342 8.65148V8.55556C5.70417 8.34506 6.81058 7.71164 7.60658 6.76755C8.40258 5.82346 8.83678 4.62965 8.83223 3.39767C8.82709 3.11889 8.80648 2.8406 8.77049 2.56408C8.92581 2.50269 9.05025 2.46815 9.20557 2.40964C9.16985 2.2784 9.14914 2.14357 9.14383 2.00771V1.85327C9.14383 1.36175 9.34019 0.890367 9.68972 0.542811C10.0392 0.195255 10.5133 0 11.0076 0C11.5019 0 11.976 0.195255 12.3255 0.542811C12.675 0.890367 12.8714 1.36175 12.8714 1.85327V2.00771C12.8685 2.14379 12.8477 2.2789 12.8096 2.40964C14.169 2.80124 15.3639 3.62064 16.2152 4.74487C17.0664 5.8691 17.5281 7.23751 17.5308 8.64477L17.6553 10.2506C17.8081 12.3982 18.4338 14.4862 19.4882 16.3667C19.9761 16.3886 20.4359 16.5999 20.7688 16.9552C21.1017 17.3106 21.2811 17.7816 21.2684 18.2671C21.2558 18.7525 21.0521 19.2137 20.7012 19.5514C20.3503 19.8892 19.8801 20.0766 19.3917 20.0733H2.61964C2.12697 20.0718 1.65481 19.877 1.3058 19.5312C0.956797 19.1854 0.759162 18.7166 0.755859 18.2267Z" fill="url(#paint2_linear)"/>
<defs>
<linearGradient id="paint0_linear" x1="11.0046" y1="20.6958" x2="11.0046" y2="23.6322" gradientUnits="userSpaceOnUse">
<stop stop-color="#647DEE"/>
<stop offset="1" stop-color="#7F53AC"/>
</linearGradient>
<linearGradient id="paint1_linear" x1="10.9988" y1="0" x2="10.9988" y2="20.0733" gradientUnits="userSpaceOnUse">
<stop stop-color="#647DEE"/>
<stop offset="1" stop-color="#7F53AC"/>
</linearGradient>
<linearGradient id="paint2_linear" x1="11.0125" y1="0" x2="11.0125" y2="20.0733" gradientUnits="userSpaceOnUse">
<stop stop-color="#647DEE"/>
<stop offset="1" stop-color="#7F53AC"/>
</linearGradient>
</defs>
</svg>
