<svg width="18" height="19" viewBox="0 0 18 19" fill="none" xmlns="http://www.w3.org/2000/svg">
<path d="M7.65525 12.2725C7.70333 12.3176 7.76618 12.3443 7.83242 12.3476L8.00959 12.298L12.8857 7.72576C12.932 7.67907 12.9579 7.61628 12.9579 7.55089C12.9579 7.48549 12.932 7.4227 12.8857 7.37601C12.8389 7.33174 12.778 7.30503 12.7134 7.30049C12.6488 7.29596 12.5846 7.31388 12.532 7.35117L7.85688 11.7495L5.70904 9.52679C5.68729 9.49827 5.6596 9.47469 5.62785 9.45766C5.5961 9.44062 5.56102 9.43052 5.52498 9.42803C5.48895 9.42555 5.45279 9.43074 5.41895 9.44325C5.38512 9.45576 5.35439 9.47531 5.32885 9.50057C5.30331 9.52583 5.28354 9.55622 5.27088 9.58968C5.25823 9.62314 5.25298 9.65889 5.25549 9.69453C5.25801 9.73016 5.26822 9.76485 5.28545 9.79625C5.30268 9.82765 5.32652 9.85503 5.35536 9.87654L7.65525 12.2725Z" fill="white" stroke="white" stroke-width="0.2"/>
<path d="M9.11943 18.6508C11.4423 18.6066 13.6523 17.6522 15.2638 15.9973C16.8754 14.3424 17.7564 12.1224 17.7134 9.82538C17.7564 7.52832 16.8754 5.30836 15.2638 3.65346C13.6523 1.99856 11.4423 1.04414 9.11943 1C6.79659 1.04414 4.58653 1.99856 2.97501 3.65346C1.3635 5.30836 0.482416 7.52832 0.52543 9.82538C0.482416 12.1224 1.3635 14.3424 2.97501 15.9973C4.58653 17.6522 6.79659 18.6066 9.11943 18.6508ZM9.11943 1.5073C11.3085 1.54972 13.391 2.44953 14.9098 4.00912C16.4285 5.56871 17.2593 7.66058 17.2196 9.82538C17.2593 11.9902 16.4285 14.0821 14.9098 15.6416C13.391 17.2012 11.3085 18.101 9.11943 18.1435C6.93037 18.101 4.84782 17.2012 3.32908 15.6416C1.81035 14.0821 0.979598 11.9902 1.01925 9.82538C0.979598 7.66058 1.81035 5.56871 3.32908 4.00912C4.84782 2.44953 6.93037 1.54972 9.11943 1.5073Z" fill="white" stroke="white" stroke-width="0.2"/>
</svg>
