<svg width="22" height="18" viewBox="0 0 22 18" fill="none" xmlns="http://www.w3.org/2000/svg">
<path d="M18.9483 2.42556H10.0789L8.16097 0.166481C8.11671 0.114426 8.06148 0.0725581 7.99915 0.0438027C7.93682 0.0150473 7.8689 9.83173e-05 7.80012 0H0.984364C0.85927 0 0.739299 0.0491412 0.650844 0.136613C0.562389 0.224086 0.512695 0.342723 0.512695 0.466428V15.036C0.513259 15.6037 0.741552 16.1479 1.14747 16.5493C1.55339 16.9507 2.10377 17.1765 2.67782 17.177H18.9483C19.5223 17.1765 20.0727 16.9507 20.4786 16.5493C20.8845 16.1479 21.1128 15.6037 21.1134 15.036V4.56945C21.1136 4.00128 20.8856 3.4563 20.4796 3.05428C20.0736 2.65227 19.5228 2.42612 18.9483 2.42556ZM1.45603 0.932856H7.57423L8.84432 2.42556H1.45603V0.932856ZM20.1701 15.036C20.1697 15.3563 20.0408 15.6634 19.8118 15.8899C19.5827 16.1164 19.2722 16.2438 18.9483 16.2442H2.67782C2.3539 16.2438 2.04335 16.1164 1.8143 15.8899C1.58525 15.6634 1.45641 15.3563 1.45603 15.036V3.35842H18.9483C19.2722 3.35879 19.5827 3.48621 19.8118 3.71271C20.0408 3.93921 20.1697 4.24631 20.1701 4.56664V15.036Z" fill="white"/>
</svg>
