<svg width="19" height="13" viewBox="0 0 19 13" fill="none" xmlns="http://www.w3.org/2000/svg">
<path d="M18.2425 2.44003C18.2425 2.21718 18.1986 1.99651 18.1132 1.79065C18.0279 1.58479 17.9028 1.39777 17.7451 1.24031C17.5874 1.08284 17.4002 0.958017 17.1942 0.872963C16.9882 0.787909 16.7675 0.7443 16.5446 0.744631H2.49227C2.04262 0.744631 1.61139 0.923255 1.29345 1.2412C0.975497 1.55915 0.796875 1.99038 0.796875 2.44003L0.796875 11.1113C0.796875 11.561 0.975497 11.9922 1.29345 12.3102C1.61139 12.6281 2.04262 12.8067 2.49227 12.8067H16.5446C16.9943 12.8067 17.4255 12.6281 17.7435 12.3102C18.0614 11.9922 18.24 11.561 18.24 11.1113L18.2425 2.44003ZM15.9457 11.294C15.852 11.3777 15.7291 11.4211 15.6036 11.4147C15.4781 11.4083 15.3602 11.3525 15.2756 11.2596L11.6863 7.27828L9.84346 8.96194L9.82838 8.97451L9.8066 8.9921L9.78901 9.00383L9.7664 9.01807L9.74881 9.02812L9.72368 9.04068L9.70608 9.04822L9.67928 9.05828L9.66253 9.06414L9.63321 9.07168H9.61729L9.58295 9.0767C9.58295 9.0767 9.57457 9.08089 9.57039 9.08173C9.5662 9.08257 9.53939 9.08759 9.52432 9.08759C9.50924 9.08759 9.49332 9.08759 9.47825 9.08173C9.47406 9.08202 9.46986 9.08202 9.46568 9.08173C9.45409 9.0807 9.44261 9.07874 9.43134 9.07586H9.41542L9.3861 9.06832L9.36935 9.06246L9.34255 9.05241L9.32496 9.04487L9.30066 9.0323L9.28224 9.02226L9.25962 9.00801L9.24203 8.99629L9.22025 8.9787L9.20433 8.96614L7.38162 7.30927L3.76466 11.2613C3.72236 11.3075 3.67138 11.3449 3.61462 11.3714C3.55787 11.3979 3.49645 11.413 3.43387 11.4157C3.3713 11.4185 3.30879 11.4089 3.24992 11.3875C3.19105 11.3661 3.13697 11.3333 3.09077 11.291C3.04457 11.2487 3.00715 11.1977 2.98065 11.141C2.95416 11.0842 2.9391 11.0228 2.93634 10.9602C2.93357 10.8977 2.94317 10.8352 2.96456 10.7763C2.98596 10.7174 3.01874 10.6633 3.06103 10.6171L6.67715 6.66763L3.09203 3.40667C2.9985 3.32159 2.9426 3.20283 2.93663 3.07653C2.93066 2.95023 2.97511 2.82673 3.0602 2.7332C3.14528 2.63968 3.26404 2.58378 3.39034 2.57781C3.51664 2.57184 3.64014 2.61629 3.73366 2.70137L9.51929 7.96515L15.3049 2.70137C15.3984 2.61629 15.5219 2.57184 15.6482 2.57781C15.7745 2.58378 15.8933 2.63968 15.9784 2.7332C16.0635 2.82673 16.1079 2.95023 16.1019 3.07653C16.096 3.20283 16.0401 3.32159 15.9466 3.40667L12.3933 6.63915L15.9801 10.6196C16.0637 10.7134 16.107 10.8364 16.1004 10.9619C16.0938 11.0875 16.0379 11.2053 15.9449 11.2898L15.9457 11.294Z" fill="url(#paint0_linear)"/>
<defs>
<linearGradient id="paint0_linear" x1="9.51971" y1="0.744629" x2="9.51971" y2="12.8067" gradientUnits="userSpaceOnUse">
<stop stop-color="#647DEE"/>
<stop offset="1" stop-color="#7F53AC"/>
</linearGradient>
</defs>
</svg>
