<svg width="21" height="21" viewBox="0 0 21 21" fill="none" xmlns="http://www.w3.org/2000/svg">
<path fill-rule="evenodd" clip-rule="evenodd" d="M10.4998 1L1.08979 10.2763C1.03364 10.3334 1.00152 10.4098 1.00005 10.4898C0.998585 10.5699 1.02788 10.6474 1.0819 10.7065C1.10817 10.7355 1.14013 10.7589 1.17578 10.7751C1.21143 10.7914 1.25003 10.8001 1.2892 10.8009C1.32837 10.8016 1.36727 10.7943 1.40351 10.7794C1.43975 10.7646 1.47256 10.7424 1.49992 10.7144L10.4998 1.84532L19.4997 10.7158C19.5271 10.7439 19.5599 10.766 19.5961 10.7809C19.6324 10.7957 19.6713 10.803 19.7105 10.8023C19.7496 10.8016 19.7882 10.7928 19.8239 10.7766C19.8595 10.7603 19.8915 10.737 19.9178 10.7079C19.9719 10.6489 20.0013 10.5714 20 10.4914C19.9986 10.4114 19.9666 10.3349 19.9106 10.2777L10.4998 1ZM17.2827 18.7962C17.2845 18.9514 17.2248 19.101 17.1166 19.2123C17.0085 19.3237 16.8607 19.3877 16.7056 19.3906H12.7935V15.2392C12.7985 14.8769 12.6594 14.5273 12.4068 14.2674C12.1542 14.0076 11.8087 13.8586 11.4463 13.8533H9.54119C9.17878 13.8586 8.83331 14.0076 8.58068 14.2674C8.32805 14.5273 8.18894 14.8769 8.19392 15.2392V19.3906H4.29984C4.14453 19.3881 3.99654 19.3242 3.88833 19.2127C3.78012 19.1013 3.72054 18.9515 3.72265 18.7962L3.7671 8.41645C3.7671 8.24796 3.50037 8.99004 3.3369 8.99004C3.17342 8.99004 3.15119 8.68676 3.15119 8.85596L3.12968 18.6162C3.12527 18.9782 3.26464 19.3272 3.5172 19.5866C3.76977 19.8461 4.11492 19.9947 4.47694 20H8.78617V15.0564C8.78407 14.9011 8.84365 14.7513 8.95186 14.6399C9.06007 14.5284 9.20806 14.4645 9.36337 14.462H11.6227C11.6996 14.4631 11.7756 14.4793 11.8463 14.5097C11.917 14.5402 11.981 14.5843 12.0346 14.6395C12.0882 14.6947 12.1304 14.7599 12.1588 14.8315C12.1871 14.903 12.2011 14.9795 12.1999 15.0564V20H16.5249C16.8871 19.9949 17.2325 19.8463 17.4853 19.5869C17.7382 19.3275 17.8778 18.9784 17.8736 18.6162V8.96996C17.8736 8.80147 17.7481 8.96996 17.5868 8.96996C17.4254 8.96996 17.3537 8.23649 17.3537 8.40498L17.282 18.7962H17.2827ZM16.3793 6.92155C16.3793 7.09004 16.2158 6.97532 16.3793 6.97532C16.5428 6.97532 16.9723 7.49298 16.9723 7.32449V3.71306C16.9773 3.35067 16.8382 3.00112 16.5855 2.74125C16.3329 2.48137 15.9874 2.33242 15.625 2.32713H11.936C11.7725 2.32713 12.3483 2.62898 12.3483 2.79747C12.3483 2.96596 12.0952 2.94087 12.2587 2.94087H15.8021C15.9574 2.94332 16.1054 3.00728 16.2136 3.11871C16.3218 3.23014 16.3814 3.37994 16.3793 3.53525V6.92585V6.92155Z" fill="white" stroke="#B6B6B6" stroke-width="0.2"/>
</svg>
