<svg width="10" height="10" viewBox="0 0 10 10" fill="none" xmlns="http://www.w3.org/2000/svg">
<path d="M0.000967026 9.11068C-0.00128555 9.18902 0.0124846 9.26698 0.0414314 9.33981C0.0703773 9.41263 0.113889 9.47878 0.169303 9.5342C0.224716 9.58961 0.290866 9.63312 0.363691 9.66207C0.436517 9.69102 0.514485 9.70479 0.592821 9.70253H9.11953C9.13968 9.70253 9.15886 9.68239 9.17901 9.68239C9.19915 9.68239 9.21833 9.66225 9.23848 9.66225C9.25862 9.66225 9.27781 9.6421 9.29795 9.62292H9.34112L9.49939 9.46464V9.42531L9.53297 9.3668V0.701955C9.53522 0.62362 9.52145 0.545649 9.4925 0.472823C9.46356 0.399998 9.42004 0.333852 9.36463 0.278438C9.30922 0.223024 9.24307 0.179509 9.17024 0.150563C9.09742 0.121617 9.01945 0.107848 8.94111 0.110101C8.78414 0.110101 8.6336 0.172457 8.52261 0.283451C8.41161 0.394445 8.34926 0.544985 8.34926 0.701955V7.68908L1.14534 0.405549C1.0617 0.322621 0.955585 0.266032 0.840118 0.242783C0.724651 0.219534 0.604901 0.230643 0.495683 0.274739C0.386465 0.318834 0.292568 0.393981 0.225611 0.490882C0.158653 0.587782 0.121574 0.702186 0.118956 0.819941C0.118484 0.900486 0.133917 0.980332 0.16437 1.0549C0.194822 1.12947 0.239694 1.19729 0.296412 1.25448L7.57995 8.51787H0.592821C0.515017 8.51787 0.437976 8.53321 0.366106 8.56301C0.294237 8.59282 0.228951 8.6365 0.173979 8.69156C0.119008 8.74662 0.0754318 8.81197 0.0457449 8.88389C0.016058 8.95581 0.000841141 9.03288 0.000967026 9.11068Z" fill="#25DB32"/>
</svg>
