<svg width="14" height="18" viewBox="0 0 14 18" fill="none" xmlns="http://www.w3.org/2000/svg">
<path d="M12.6125 7.77342H11.6827C11.6514 7.77298 11.6204 7.76637 11.5916 7.75397C11.5628 7.74157 11.5367 7.72361 11.5149 7.70113C11.493 7.67865 11.4758 7.65209 11.4642 7.62296C11.4526 7.59382 11.4469 7.56269 11.4473 7.53134V5.34089C11.4593 4.1205 10.999 2.94272 10.1628 2.05383C9.32647 1.16493 8.17893 0.633745 6.96007 0.571332C6.33234 0.548935 5.70654 0.653269 5.12003 0.878104C4.53352 1.10294 3.99833 1.44366 3.54642 1.87993C3.09452 2.3162 2.73517 2.83906 2.48983 3.41729C2.24449 3.99553 2.11819 4.61727 2.11848 5.2454V7.55898C2.11848 7.6223 2.09332 7.68302 2.04855 7.72779C2.00378 7.77256 1.94306 7.79771 1.87975 7.79771H0.950796C0.866112 7.79738 0.7822 7.81381 0.703898 7.84607C0.625596 7.87832 0.554453 7.92576 0.494572 7.98564C0.43469 8.04552 0.387256 8.11666 0.355002 8.19496C0.322748 8.27327 0.306313 8.35718 0.306646 8.44186V16.8837C0.306313 16.9683 0.322748 17.0523 0.355002 17.1306C0.387256 17.2089 0.43469 17.28 0.494572 17.3399C0.554453 17.3998 0.625596 17.4472 0.703898 17.4795C0.7822 17.5117 0.866112 17.5281 0.950796 17.5278H12.5882C12.6729 17.5281 12.7568 17.5117 12.8351 17.4795C12.9134 17.4472 12.9846 17.3998 13.0444 17.3399C13.1043 17.28 13.1518 17.2089 13.184 17.1306C13.2163 17.0523 13.2327 16.9683 13.2324 16.8837V8.41757C13.2375 8.3337 13.2252 8.24969 13.1961 8.17084C13.1671 8.09198 13.1221 8.02001 13.0638 7.95947C13.0055 7.89892 12.9354 7.85113 12.8577 7.81911C12.78 7.78708 12.6965 7.77152 12.6125 7.77342V7.77342ZM3.57347 5.2454C3.5724 4.80802 3.66055 4.37501 3.83252 3.97285C4.00449 3.57069 4.25668 3.20783 4.57366 2.90645C4.89064 2.60507 5.26576 2.37151 5.67608 2.22004C6.0864 2.06856 6.5233 2.00236 6.96007 2.02549C7.79894 2.08124 8.58479 2.45551 9.15674 3.07169C9.7287 3.68787 10.0435 4.49936 10.0367 5.34006V7.55898C10.0367 7.6223 10.0116 7.68302 9.96683 7.72779C9.92206 7.77256 9.86134 7.79771 9.79802 7.79771H3.78874C3.72543 7.79771 3.66471 7.77256 3.61994 7.72779C3.57516 7.68302 3.55001 7.6223 3.55001 7.55898V5.2454H3.57347Z" fill="url(#paint0_linear)"/>
<defs>
<linearGradient id="paint0_linear" x1="6.77007" y1="0.568359" x2="6.77007" y2="17.5278" gradientUnits="userSpaceOnUse">
<stop stop-color="#647DEE"/>
<stop offset="1" stop-color="#7F53AC"/>
</linearGradient>
</defs>
</svg>
