<svg width="20" height="18" viewBox="0 0 20 18" fill="none" xmlns="http://www.w3.org/2000/svg">
<path d="M13.3861 0.748796C11.9444 0.748796 10.7679 1.91213 10.7679 3.33784C10.7679 4.76354 11.9444 5.92693 13.3861 5.92693C14.8278 5.92693 16.0018 4.76354 16.0018 3.33784C16.0018 1.91213 14.8278 0.748796 13.3861 0.748796ZM13.3861 0C15.2459 0 16.759 1.49734 16.759 3.33784C16.759 5.17835 15.2459 6.67573 13.3861 6.67573C11.5249 6.67573 10.0107 5.17835 10.0107 3.33784C10.0107 1.49734 11.5249 0 13.3861 0Z" fill="white"/>
<path d="M13.3862 6.57424C10.6741 6.57424 8.47839 8.72859 8.47839 11.3965V12.7223C8.47912 12.9 8.62461 13.0439 8.8043 13.0446H10.4588C10.6282 10.6983 12.6064 8.83846 15.0215 8.83846C16.2009 8.83846 17.274 9.28581 18.087 10.0126C17.4823 8.02199 15.6088 6.57424 13.3862 6.57424ZM13.3862 5.82544C14.63 5.82544 15.8098 6.21374 16.7982 6.94837C17.7548 7.65934 18.4701 8.67106 18.8122 9.79715L19.5934 12.3686L17.5792 10.5681C16.8717 9.93557 15.9634 9.58726 15.0215 9.58726C13.0287 9.58726 11.3562 11.1293 11.2141 13.098L11.1639 13.7934H10.4588H8.8043C8.20816 13.7911 7.72359 13.312 7.7212 12.7254L7.72119 11.3965C7.72119 9.90558 8.3109 8.50528 9.38168 7.45363C10.4507 6.40369 11.8729 5.82544 13.3862 5.82544Z" fill="white"/>
<path d="M6.18883 0.748796C4.7471 0.748796 3.57068 1.91213 3.57068 3.33784C3.57068 4.76354 4.7471 5.92693 6.18883 5.92693C7.63057 5.92693 8.80457 4.76354 8.80457 3.33784C8.80457 1.91213 7.63057 0.748796 6.18883 0.748796ZM6.18883 0C8.04868 0 9.56177 1.49734 9.56177 3.33784C9.56177 5.17835 8.04868 6.67573 6.18883 6.67573C4.32766 6.67573 2.81348 5.17835 2.81348 3.33784C2.81348 1.49734 4.32766 0 6.18883 0Z" fill="white"/>
<path d="M6.18895 6.57436C3.47683 6.57436 1.28113 8.72871 1.28113 11.3967V12.7225C1.28185 12.9002 1.42734 13.0441 1.60704 13.0447H7.88624C7.84907 12.944 7.82479 12.8371 7.82424 12.725C7.82423 12.7242 7.82423 12.7234 7.82424 12.7226V11.3968C7.82427 9.96009 8.39498 8.65669 9.31834 7.68032C8.46902 6.98943 7.37893 6.57443 6.18895 6.57443L6.18895 6.57436ZM6.18895 5.82556H7.01188L7.00694 5.88417C8.02902 6.03107 8.99881 6.45081 9.79938 7.10205L10.4225 7.60896L9.87138 8.19176C9.03958 9.07135 8.58146 10.2096 8.58144 11.3968V12.7208C8.58169 12.7307 8.58391 12.7511 8.59758 12.7881L8.96851 13.7935H7.88624H1.60704C1.01089 13.7913 0.52633 13.3121 0.523932 12.7255L0.523926 11.3967C0.523926 9.9057 1.11363 8.5054 2.18441 7.45375C3.25345 6.40381 4.67562 5.82556 6.18895 5.82556Z" fill="white"/>
<path d="M15.0215 9.48659C12.8492 9.48659 11.0966 11.2217 11.0966 13.3699C11.0966 15.5181 12.8492 17.2513 15.0215 17.2513C17.1938 17.2513 18.9484 15.5181 18.9484 13.3699C18.9484 11.2217 17.1938 9.48659 15.0215 9.48659ZM17.306 13.0451C17.3061 13.0451 17.3061 13.0451 17.3062 13.0451C17.4868 13.0451 17.6333 13.1899 17.6333 13.3686C17.6333 13.5474 17.4868 13.6922 17.306 13.6922L15.35 13.6922V15.6291C15.35 15.8079 15.2034 15.953 15.0225 15.953C14.8416 15.953 14.695 15.8079 14.695 15.6291V13.6922H12.7363C12.7363 13.6922 12.7362 13.6922 12.7362 13.6922C12.5555 13.6922 12.4091 13.5473 12.4091 13.3686C12.4091 13.1899 12.5556 13.045 12.7363 13.045L14.695 13.0451V11.1081C14.6928 10.9302 14.8365 10.7839 15.0164 10.7808H15.0163C15.0184 10.7808 15.0205 10.7807 15.0226 10.7807C15.1089 10.7807 15.1918 10.8144 15.2532 10.8746C15.3161 10.9363 15.351 11.0206 15.3499 11.1081V13.0451H17.306ZM15.0215 8.73779C16.2744 8.73779 17.4512 9.21915 18.335 10.0932C19.2189 10.9672 19.7056 12.1309 19.7056 13.3699C19.7056 14.6088 19.2188 15.7722 18.3348 16.6458C17.4511 17.5191 16.2744 18.0001 15.0215 18.0001C13.7687 18.0001 12.5922 17.5191 11.709 16.6456C10.8258 15.7722 10.3394 14.6089 10.3394 13.3699C10.3394 12.1309 10.8257 10.9673 11.7088 10.0934C12.5922 9.21923 13.7687 8.73779 15.0215 8.73779Z" fill="white"/>
</svg>
