<svg width="22" height="23" viewBox="0 0 22 23" fill="none" xmlns="http://www.w3.org/2000/svg">
<path d="M10.6543 1.67261C8.59703 1.67242 6.58587 2.28229 4.87518 3.42511C3.16449 4.56793 1.8311 6.19236 1.04363 8.09299C0.256163 9.99362 0.0499784 12.0851 0.451152 14.1029C0.852326 16.1207 1.84284 17.9742 3.29744 19.4291C4.75204 20.884 6.60539 21.8748 8.62312 22.2764C10.6409 22.6779 12.7323 22.4721 14.6331 21.685C16.5339 20.8979 18.1586 19.5648 19.3017 17.8543C20.4448 16.1438 21.0551 14.1328 21.0553 12.0755C21.0554 10.7095 20.7865 9.35682 20.2638 8.09476C19.7412 6.83269 18.9751 5.68593 18.0093 4.71993C17.0435 3.75394 15.8969 2.98763 14.6349 2.46477C13.3729 1.94191 12.0203 1.67273 10.6543 1.67261ZM10.6543 21.7191C8.74756 21.7191 6.88361 21.1537 5.29819 20.0944C3.71277 19.035 2.47709 17.5293 1.7474 15.7677C1.01771 14.0061 0.826795 12.0676 1.19879 10.1975C1.57078 8.32738 2.48897 6.60956 3.83726 5.26127C5.18555 3.91298 6.90337 2.99479 8.7735 2.6228C10.6436 2.2508 12.5821 2.44172 14.3437 3.17141C16.1053 3.9011 17.611 5.13678 18.6704 6.7222C19.7297 8.30762 20.2951 10.1716 20.2951 12.0783C20.2951 14.6352 19.2794 17.0874 17.4714 18.8954C15.6634 20.7034 13.2112 21.7191 10.6543 21.7191Z" fill="#F46F72"/>
<path d="M12.1144 1.18124C12.1682 1.18787 12.2229 1.18299 12.2747 1.16692C12.3265 1.15085 12.3743 1.12396 12.4149 1.08802C12.4555 1.05209 12.4881 1.00794 12.5104 0.958482C12.5326 0.909028 12.5442 0.855406 12.5442 0.801164C12.5442 0.746922 12.5326 0.693299 12.5104 0.643846C12.4881 0.594392 12.4555 0.550236 12.4149 0.514302C12.3743 0.478369 12.3265 0.451476 12.2747 0.435406C12.2229 0.419336 12.1682 0.414454 12.1144 0.421085H9.19344C9.1396 0.414454 9.08497 0.419336 9.03316 0.435406C8.98136 0.451476 8.93356 0.478369 8.89293 0.514302C8.85229 0.550236 8.81976 0.594392 8.79748 0.643846C8.77519 0.693299 8.76367 0.746922 8.76367 0.801164C8.76367 0.855406 8.77519 0.909028 8.79748 0.958482C8.81976 1.00794 8.85229 1.05209 8.89293 1.08802C8.93356 1.12396 8.98136 1.15085 9.03316 1.16692C9.08497 1.18299 9.1396 1.18787 9.19344 1.18124H12.1144Z" fill="#F46F72"/>
<path d="M10.6564 4.93906C10.758 4.93906 10.8554 4.89872 10.9272 4.8269C10.999 4.75508 11.0394 4.65768 11.0394 4.55611V3.30769C11.046 3.25386 11.0411 3.19923 11.0251 3.14742C11.009 3.09562 10.9821 3.04782 10.9462 3.00718C10.9102 2.96655 10.8661 2.93402 10.8166 2.91174C10.7672 2.88945 10.7136 2.87793 10.6593 2.87793C10.6051 2.87793 10.5515 2.88945 10.502 2.91174C10.4525 2.93402 10.4084 2.96655 10.3725 3.00718C10.3365 3.04782 10.3096 3.09562 10.2936 3.14742C10.2775 3.19923 10.2726 3.25386 10.2792 3.30769V4.55899C10.28 4.65907 10.3199 4.75488 10.3904 4.82592C10.4609 4.89695 10.5564 4.93757 10.6564 4.93906Z" fill="#F46F72"/>
<path d="M3.20985 13.1711L2.38916 13.3342L2.53736 14.0798L3.35805 13.9167L3.20985 13.1711Z" fill="#F46F72"/>
<path d="M3.56559 14.5996L2.79248 14.9197L3.08326 15.622L3.85637 15.3019L3.56559 14.5996Z" fill="#F46F72"/>
<path d="M4.19581 15.9361L3.5 16.4009L3.92221 17.033L4.61802 16.5682L4.19581 15.9361Z" fill="#F46F72"/>
<path d="M5.07165 17.1215L4.47998 17.7131L5.01749 18.2506L5.60916 17.659L5.07165 17.1215Z" fill="#F46F72"/>
<path d="M6.16116 18.1129L5.69629 18.8086L6.32834 19.2309L6.79321 18.5352L6.16116 18.1129Z" fill="#F46F72"/>
<path d="M7.42581 18.8742L7.10547 19.6472L7.80771 19.9382L8.12806 19.1652L7.42581 18.8742Z" fill="#F46F72"/>
<path d="M8.81548 19.3751L8.65234 20.1958L9.39791 20.344L9.56105 19.5233L8.81548 19.3751Z" fill="#F46F72"/>
<path d="M12.4941 19.3725L11.7485 19.5208L11.9117 20.3414L12.6572 20.1932L12.4941 19.3725Z" fill="#F46F72"/>
<path d="M13.8776 18.8757L13.1753 19.1665L13.4954 19.9396L14.1977 19.6488L13.8776 18.8757Z" fill="#F46F72"/>
<path d="M15.1486 18.1163L14.5166 18.5386L14.9815 19.2343L15.6135 18.812L15.1486 18.1163Z" fill="#F46F72"/>
<path d="M16.2371 17.125L15.6997 17.6626L16.2915 18.2542L16.8289 17.7166L16.2371 17.125Z" fill="#F46F72"/>
<path d="M17.1156 15.9372L16.6934 16.5693L17.3892 17.0341L17.8114 16.402L17.1156 15.9372Z" fill="#F46F72"/>
<path d="M17.7434 14.6031L17.4526 15.3054L18.2257 15.6255L18.5165 14.9231L17.7434 14.6031Z" fill="#F46F72"/>
<path d="M18.1013 13.1736L17.9531 13.9192L18.7738 14.0823L18.922 13.3368L18.1013 13.1736Z" fill="#F46F72"/>
<path d="M18.7738 10.0742L17.9531 10.2373L18.1013 10.9829L18.922 10.8197L18.7738 10.0742Z" fill="#F46F72"/>
<path d="M18.2257 8.52514L17.4526 8.84521L17.7434 9.54756L18.5165 9.22749L18.2257 8.52514Z" fill="#F46F72"/>
<path d="M17.3914 7.12184L16.6953 7.58618L17.1171 8.21855L17.8132 7.75422L17.3914 7.12184Z" fill="#F46F72"/>
<path d="M16.2884 5.8993L15.6968 6.49097L16.2343 7.02848L16.826 6.43681L16.2884 5.8993Z" fill="#F46F72"/>
<path d="M14.9785 4.92097L14.5137 5.6167L15.1457 6.03902L15.6106 5.34329L14.9785 4.92097Z" fill="#F46F72"/>
<path d="M13.4991 4.21284L13.1787 4.98584L13.881 5.27686L14.2013 4.50386L13.4991 4.21284Z" fill="#F46F72"/>
<path d="M11.9097 3.8109L11.7466 4.63159L12.4922 4.77979L12.6553 3.9591L11.9097 3.8109Z" fill="#F46F72"/>
<path d="M10.6563 19.2126C10.5548 19.2126 10.4574 19.253 10.3855 19.3248C10.3137 19.3966 10.2734 19.494 10.2734 19.5956V20.8469C10.2667 20.9007 10.2716 20.9554 10.2877 21.0072C10.3038 21.059 10.3307 21.1068 10.3666 21.1474C10.4025 21.188 10.4467 21.2206 10.4961 21.2428C10.5456 21.2651 10.5992 21.2767 10.6535 21.2767C10.7077 21.2767 10.7613 21.2651 10.8108 21.2428C10.8602 21.2206 10.9044 21.188 10.9403 21.1474C10.9763 21.1068 11.0031 21.059 11.0192 21.0072C11.0353 20.9554 11.0402 20.9007 11.0335 20.8469V19.5927C11.0328 19.4926 10.9929 19.3968 10.9224 19.3258C10.8519 19.2548 10.7564 19.2141 10.6563 19.2126Z" fill="#F46F72"/>
<path d="M17.7886 12.0771C17.7886 12.1787 17.8289 12.2761 17.9007 12.3479C17.9726 12.4197 18.07 12.4601 18.1715 12.4601H19.4228C19.4767 12.4667 19.5313 12.4618 19.5831 12.4457C19.6349 12.4297 19.6827 12.4028 19.7233 12.3668C19.764 12.3309 19.7965 12.2867 19.8188 12.2373C19.8411 12.1878 19.8526 12.1342 19.8526 12.08C19.8526 12.0257 19.8411 11.9721 19.8188 11.9227C19.7965 11.8732 19.764 11.829 19.7233 11.7931C19.6827 11.7572 19.6349 11.7303 19.5831 11.7142C19.5313 11.6981 19.4767 11.6933 19.4228 11.6999H18.1687C18.0686 11.7006 17.9728 11.7405 17.9017 11.811C17.8307 11.8815 17.7901 11.977 17.7886 12.0771Z" fill="#F46F72"/>
<path d="M3.51907 12.0772C3.51907 11.9757 3.47872 11.8783 3.4069 11.8064C3.33509 11.7346 3.23768 11.6943 3.13612 11.6943H1.88387C1.83003 11.6876 1.7754 11.6925 1.7236 11.7086C1.67179 11.7247 1.62399 11.7516 1.58336 11.7875C1.54272 11.8234 1.51019 11.8676 1.48791 11.917C1.46562 11.9665 1.4541 12.0201 1.4541 12.0744C1.4541 12.1286 1.46562 12.1822 1.48791 12.2317C1.51019 12.2811 1.54272 12.3253 1.58336 12.3612C1.62399 12.3972 1.67179 12.424 1.7236 12.4401C1.7754 12.4562 1.83003 12.4611 1.88387 12.4544H3.13516C3.23672 12.4544 3.33413 12.4141 3.40595 12.3423C3.47776 12.2705 3.51811 12.1731 3.51811 12.0715L3.51907 12.0772Z" fill="#F46F72"/>
<path d="M10.6544 10.6899C10.2865 10.691 9.93398 10.8375 9.67386 11.0977C9.41374 11.3578 9.26716 11.7103 9.26615 12.0781C9.26731 12.3132 9.32896 12.544 9.44518 12.7483L5.79087 16.395C5.74698 16.4279 5.71067 16.4698 5.68441 16.518C5.65815 16.5662 5.64255 16.6194 5.63866 16.6742C5.63477 16.7289 5.64268 16.7838 5.66187 16.8352C5.68106 16.8866 5.71106 16.9333 5.74986 16.9721C5.78865 17.0109 5.83533 17.0409 5.88674 17.0601C5.93814 17.0793 5.99306 17.0872 6.04779 17.0833C6.10252 17.0794 6.15577 17.0638 6.20395 17.0375C6.25212 17.0113 6.29409 16.975 6.32701 16.9311L9.98132 13.2749C10.1845 13.3953 10.4153 13.4612 10.6515 13.4663C10.8338 13.4663 11.0143 13.4304 11.1827 13.3607C11.3511 13.2909 11.5042 13.1886 11.6331 13.0597C11.762 12.9308 11.8642 12.7778 11.934 12.6094C12.0038 12.441 12.0397 12.2604 12.0397 12.0781C12.0397 11.8958 12.0038 11.7153 11.934 11.5469C11.8642 11.3785 11.762 11.2254 11.6331 11.0965C11.5042 10.9676 11.3511 10.8654 11.1827 10.7956C11.0143 10.7258 10.8338 10.6899 10.6515 10.6899H10.6544ZM10.6544 12.7052C10.5303 12.7052 10.4091 12.6684 10.306 12.5995C10.2028 12.5306 10.1225 12.4327 10.075 12.3181C10.0275 12.2035 10.0151 12.0774 10.0393 11.9558C10.0635 11.8342 10.1232 11.7224 10.2109 11.6347C10.2986 11.547 10.4104 11.4873 10.532 11.4631C10.6537 11.4389 10.7797 11.4513 10.8943 11.4988C11.0089 11.5463 11.1068 11.6266 11.1758 11.7298C11.2447 11.8329 11.2814 11.9541 11.2814 12.0781C11.2814 12.2445 11.2154 12.404 11.0978 12.5216C10.9802 12.6392 10.8207 12.7052 10.6544 12.7052Z" fill="#F46F72"/>
<path d="M3.62632 3.8437C3.77205 3.84338 3.91462 3.80118 4.03704 3.72212L5.85127 2.54741C5.93807 2.4943 6.01332 2.4243 6.07257 2.34156C6.13181 2.25882 6.17384 2.16503 6.19616 2.06575C6.21848 1.96646 6.22064 1.86371 6.20251 1.76357C6.18438 1.66344 6.14633 1.56796 6.09061 1.48281L5.87424 1.18219C5.81991 1.09821 5.74954 1.02579 5.66716 0.969055C5.58478 0.912325 5.49202 0.87241 5.39419 0.851598C5.29635 0.830786 5.19537 0.829487 5.09704 0.847774C4.9987 0.866061 4.90494 0.903576 4.82113 0.958167L3.0069 2.10702C2.92292 2.16135 2.85049 2.23172 2.79376 2.3141C2.73703 2.39648 2.69712 2.48925 2.6763 2.58708C2.65549 2.68491 2.65419 2.78589 2.67248 2.88423C2.69077 2.98256 2.72828 3.07632 2.78287 3.16013L2.98871 3.4799C3.05563 3.58944 3.1492 3.68026 3.26069 3.74387C3.37218 3.80749 3.49797 3.84183 3.62632 3.8437ZM5.44534 1.8964L5.65118 2.21616L5.44534 1.8964ZM5.23663 1.56132L5.44247 1.88108L3.62632 3.08354L3.42815 2.74846L5.23663 1.56132Z" fill="#F46F72"/>
<path d="M15.4538 2.5361L17.2728 3.7108C17.3569 3.76522 17.4508 3.8025 17.5493 3.82049C17.6478 3.83849 17.7489 3.83686 17.8467 3.81569C17.9446 3.79452 18.0373 3.75422 18.1195 3.69712C18.2018 3.64002 18.2719 3.56724 18.3259 3.48295L18.5318 3.16318C18.5864 3.07937 18.6239 2.98561 18.6422 2.88728C18.6605 2.78894 18.6592 2.68796 18.6383 2.59013C18.6175 2.49229 18.5776 2.39953 18.5209 2.31715C18.4642 2.23477 18.3917 2.1644 18.3077 2.11007L16.4887 0.938239C16.4047 0.883825 16.3107 0.846547 16.2122 0.828548C16.1138 0.810548 16.0127 0.812182 15.9148 0.833354C15.817 0.854526 15.7243 0.894819 15.642 0.951921C15.5598 1.00902 15.4896 1.08181 15.4356 1.1661L15.2192 1.48203C15.1648 1.56607 15.1276 1.66003 15.1096 1.75852C15.0916 1.857 15.0932 1.95808 15.1144 2.05593C15.1355 2.15378 15.1758 2.24649 15.2329 2.32873C15.29 2.41097 15.3628 2.48111 15.4471 2.53514L15.4538 2.5361ZM15.8645 1.89753L16.0732 1.56245L17.8798 2.74864L17.674 3.0684L15.8645 1.89657V1.89753Z" fill="#F46F72"/>
</svg>
