<svg width="18" height="18" viewBox="0 0 18 18" fill="none" xmlns="http://www.w3.org/2000/svg">
<path fill-rule="evenodd" clip-rule="evenodd" d="M0.523926 0H8.71494V9H0.523926V0ZM1.05902 0.560835V8.43916H8.17984V0.560835H1.05902Z" fill="white"/>
<path fill-rule="evenodd" clip-rule="evenodd" d="M1.42963 0H7.80857V0.3082L7.816 8.97753e-05C8.05996 0.00656287 8.29153 0.114147 8.45998 0.299276C8.62771 0.48361 8.71924 0.729859 8.71478 0.984489V8.01542C8.71924 8.27005 8.62771 8.5163 8.45998 8.70063C8.29153 8.88576 8.05996 8.99335 7.816 8.99982L7.80924 9L1.42286 8.99991C1.1789 8.99344 0.947334 8.88576 0.778884 8.70063C0.611161 8.5163 0.519624 8.27006 0.524081 8.01544V0.984474C0.519624 0.729849 0.611161 0.483606 0.778884 0.299276C0.947334 0.114147 1.1789 0.00656287 1.42286 8.97753e-05L1.42963 0ZM7.80541 0.56096H1.43345C1.3321 0.564457 1.23606 0.609504 1.16601 0.68649C1.09528 0.76422 1.05682 0.868172 1.05905 0.975575L1.05918 0.981681L1.05912 8.02434C1.05688 8.13174 1.09528 8.23569 1.16601 8.31342C1.23606 8.39041 1.33211 8.43545 1.43346 8.43895H7.80541C7.90676 8.43545 8.0028 8.39041 8.07285 8.31342C8.14358 8.23569 8.18204 8.13174 8.17981 8.02433L8.17968 8.01823L8.17975 0.975573C8.18198 0.86817 8.14358 0.76422 8.07285 0.68649C8.0028 0.609504 7.90676 0.564457 7.80541 0.56096Z" fill="white"/>
<path fill-rule="evenodd" clip-rule="evenodd" d="M9.625 0H17.816V9H9.625V0ZM10.1601 0.560835V8.43916H17.2809V0.560835H10.1601Z" fill="white"/>
<path fill-rule="evenodd" clip-rule="evenodd" d="M10.5307 0H16.9171C17.161 0.0064731 17.3926 0.114147 17.5611 0.299276C17.7288 0.48361 17.8203 0.729859 17.8159 0.984489V8.01542C17.8203 8.27005 17.7288 8.5163 17.5611 8.70063C17.3926 8.88576 17.161 8.99335 16.9171 8.99982L16.9103 9L10.5239 8.99991C10.28 8.99344 10.0484 8.88576 9.87996 8.70063C9.71223 8.5163 9.6207 8.27006 9.62516 8.01544V0.984474C9.6207 0.729849 9.71223 0.483606 9.87996 0.299276C10.0484 0.114147 10.28 0.00656287 10.5239 8.97753e-05L10.5307 0ZM10.5345 0.56096C10.4332 0.564457 10.3371 0.609504 10.2671 0.68649C10.1964 0.76422 10.1579 0.868172 10.1601 0.975575L10.1603 0.981681L10.1602 8.02434C10.158 8.13174 10.1964 8.23569 10.2671 8.31342C10.3371 8.39041 10.4332 8.43545 10.5345 8.43895H16.9065C17.0078 8.43545 17.1039 8.39041 17.1739 8.31342C17.2447 8.23569 17.2831 8.13174 17.2809 8.02433L17.2808 8.01823L17.2808 0.975573C17.2831 0.86817 17.2447 0.76422 17.1739 0.68649C17.1039 0.609504 17.0078 0.564457 16.9065 0.56096H10.5345Z" fill="white"/>
<path fill-rule="evenodd" clip-rule="evenodd" d="M0.523926 9.8999H8.71494V17.9999H0.523926V9.8999ZM1.05902 10.4047V17.4952H8.17984V10.4047H1.05902Z" fill="white"/>
<path fill-rule="evenodd" clip-rule="evenodd" d="M1.42963 9.8999H7.80857V10.1773L7.816 9.89998C8.05996 9.90581 8.29153 10.0026 8.45998 10.1693C8.62771 10.3352 8.71924 10.5568 8.71478 10.7859V17.1139C8.71903 17.343 8.62744 17.5645 8.45978 17.7303C8.29143 17.8968 8.06008 17.9937 7.81628 17.9997L7.80924 17.9999L1.42258 17.9998C1.17878 17.9938 0.947431 17.8968 0.779083 17.7303C0.611428 17.5645 0.519833 17.343 0.524081 17.1139V10.7859C0.519624 10.5568 0.611161 10.3351 0.778884 10.1693C0.947334 10.0026 1.1789 9.90581 1.42286 9.89998L1.42963 9.8999ZM7.80541 10.4048H1.43345C1.3321 10.4079 1.23606 10.4485 1.16601 10.5177C1.09528 10.5877 1.05682 10.6813 1.05905 10.7779L1.05918 10.7834L1.05912 17.1215C1.05699 17.2182 1.09545 17.3118 1.16621 17.3818C1.23626 17.4511 1.33227 17.4917 1.43361 17.495H7.80525C7.9066 17.4917 8.0026 17.4511 8.07265 17.3818C8.14341 17.3118 8.18193 17.2182 8.1798 17.1215L8.17969 17.1163L8.17975 10.7779C8.18198 10.6813 8.14358 10.5877 8.07285 10.5177C8.0028 10.4485 7.90676 10.4079 7.80541 10.4048Z" fill="white"/>
<path fill-rule="evenodd" clip-rule="evenodd" d="M9.625 9.8999H17.816V17.9999H9.625V9.8999ZM10.1601 10.4047V17.4952H17.2809V10.4047H10.1601Z" fill="white"/>
<path fill-rule="evenodd" clip-rule="evenodd" d="M10.5307 9.8999H16.9096V10.1773L16.9171 9.89998C17.161 9.90581 17.3926 10.0026 17.5611 10.1693C17.7288 10.3352 17.8203 10.5568 17.8159 10.7859V17.1139C17.8201 17.343 17.7285 17.5645 17.5609 17.7303C17.3925 17.8968 17.1612 17.9937 16.9174 17.9997L16.9103 17.9999L10.5239 17.9998C10.28 17.994 10.0484 17.8971 9.87996 17.7305C9.71223 17.5646 9.6207 17.343 9.62516 17.1138V10.7859C9.6207 10.5568 9.71223 10.3351 9.87996 10.1693C10.0484 10.0026 10.28 9.90581 10.5239 9.89998L10.5307 9.8999ZM16.9065 10.4048H10.5345C10.4332 10.4079 10.3371 10.4485 10.2671 10.5177C10.1964 10.5877 10.1579 10.6813 10.1601 10.7779L10.1603 10.7834L10.1602 17.1218C10.158 17.2185 10.1964 17.312 10.2671 17.382C10.3371 17.4513 10.4332 17.4918 10.5345 17.495H16.9063C17.0077 17.4917 17.1037 17.4511 17.1737 17.3818C17.2445 17.3118 17.283 17.2182 17.2809 17.1215L17.2808 17.1163L17.2808 10.7779C17.2831 10.6813 17.2447 10.5877 17.1739 10.5177C17.1039 10.4485 17.0078 10.4079 16.9065 10.4048Z" fill="white"/>
</svg>
