<svg width="8" height="6" viewBox="0 0 8 6" fill="none" xmlns="http://www.w3.org/2000/svg">
<path d="M2.30275 5.57757L0.608195 3.90982C0.510528 3.80991 0.451326 3.67869 0.441056 3.53936C0.430786 3.40002 0.470109 3.26154 0.552074 3.1484C0.597779 3.08049 0.658425 3.02396 0.729363 2.98313C0.800301 2.94229 0.879648 2.91825 0.96132 2.91283C1.04299 2.90741 1.12482 2.92077 1.20053 2.95187C1.27624 2.98298 1.34382 3.031 1.3981 3.09227L2.69561 4.38979L6.24891 0.836491C6.35744 0.754057 6.49216 0.713731 6.62814 0.72298C6.76411 0.732228 6.89213 0.790424 6.9885 0.886795C7.08488 0.983166 7.14307 1.11119 7.15232 1.24716C7.16157 1.38314 7.12124 1.51786 7.03881 1.62639L3.09098 5.57422C3.04076 5.62893 2.97973 5.67261 2.91174 5.7025C2.84375 5.73238 2.7703 5.74781 2.69603 5.74781C2.62177 5.74781 2.54831 5.73238 2.48032 5.7025C2.41234 5.67261 2.3513 5.62893 2.30108 5.57422L2.30275 5.57757Z" fill="white"/>
</svg>
