<svg width="10" height="10" viewBox="0 0 10 10" fill="none" xmlns="http://www.w3.org/2000/svg">
<path d="M0.000238689 0.70103C-0.00202037 0.622612 0.0117761 0.54456 0.0407806 0.471668C0.0697851 0.398776 0.113385 0.332583 0.168903 0.277155C0.224421 0.221727 0.290684 0.178234 0.363623 0.149347C0.436562 0.120461 0.514637 0.106791 0.593051 0.109178H9.11976C9.13991 0.109178 9.15909 0.129322 9.17924 0.129322C9.19938 0.129322 9.21856 0.149466 9.23871 0.149466C9.25885 0.149466 9.27804 0.16961 9.29818 0.188795H9.33751L9.49674 0.345152V0.38448L9.53607 0.443954V9.10879C9.53847 9.18738 9.52475 9.26561 9.49574 9.33869C9.46674 9.41176 9.42307 9.47811 9.36744 9.53366C9.3118 9.58921 9.24538 9.63276 9.17226 9.66165C9.09914 9.69053 9.02088 9.70413 8.9423 9.70161C8.86409 9.70224 8.78654 9.68737 8.71411 9.65785C8.64169 9.62833 8.57583 9.58475 8.52035 9.52962C8.46487 9.4745 8.42087 9.40893 8.39088 9.3367C8.3609 9.26446 8.34552 9.187 8.34565 9.10879V2.12359L1.14557 9.4052C1.09041 9.46197 1.02443 9.50709 0.951519 9.53791C0.878611 9.56872 0.800262 9.5846 0.72111 9.5846C0.641957 9.5846 0.563609 9.56872 0.4907 9.53791C0.417792 9.50709 0.351805 9.46197 0.296645 9.4052C0.185143 9.29589 0.121358 9.14694 0.119185 8.99081C0.118714 8.91026 0.134148 8.83042 0.1646 8.75585C0.195053 8.68128 0.239925 8.61346 0.296645 8.55627L7.57826 1.29288H0.593051C0.515247 1.29301 0.438182 1.27779 0.366264 1.24811C0.294346 1.21842 0.228988 1.17484 0.173927 1.11987C0.118867 1.0649 0.0751858 0.999614 0.0453824 0.927745C0.015579 0.855875 0.000238587 0.778834 0.000238689 0.70103Z" fill="#25DB32"/>
</svg>
