<svg width="12" height="12" viewBox="0 0 12 12" fill="none" xmlns="http://www.w3.org/2000/svg">
<path d="M10.9016 0.567871H0.749283C0.599771 0.567871 0.456383 0.627265 0.350662 0.732986C0.244941 0.838707 0.185547 0.982095 0.185547 1.13161V11.2839C0.185547 11.3579 0.200128 11.4312 0.228459 11.4996C0.256789 11.568 0.298314 11.6302 0.350662 11.6825C0.403009 11.7349 0.465155 11.7764 0.53355 11.8047C0.601946 11.833 0.675252 11.8476 0.749283 11.8476H10.9016C10.9756 11.8476 11.0489 11.833 11.1173 11.8047C11.1857 11.7764 11.2478 11.7349 11.3002 11.6825C11.3525 11.6302 11.3941 11.568 11.4224 11.4996C11.4507 11.4312 11.4653 11.3579 11.4653 11.2839V1.13161C11.4653 1.05758 11.4507 0.98427 11.4224 0.915875C11.3941 0.847479 11.3525 0.785334 11.3002 0.732986C11.2478 0.680638 11.1857 0.639113 11.1173 0.610783C11.0489 0.582453 10.9756 0.567871 10.9016 0.567871V0.567871Z" fill="url(#paint0_linear)"/>
<defs>
<linearGradient id="paint0_linear" x1="5.82542" y1="0.567871" x2="5.82542" y2="11.8476" gradientUnits="userSpaceOnUse">
<stop stop-color="#647DEE"/>
<stop offset="1" stop-color="#7F53AC"/>
</linearGradient>
</defs>
</svg>
