<svg width="17" height="16" viewBox="0 0 17 16" fill="none" xmlns="http://www.w3.org/2000/svg">
<path d="M9.81031 15.4037L16.4143 8.74442C16.5219 8.64563 16.6079 8.52556 16.6666 8.39182C16.7254 8.25808 16.7558 8.11358 16.7558 7.9675C16.7558 7.82141 16.7254 7.67692 16.6666 7.54318C16.6079 7.40944 16.5219 7.28937 16.4143 7.19058L9.81031 0.532964C9.61374 0.34066 9.35549 0.224079 9.08124 0.203844C8.80699 0.183609 8.53443 0.261024 8.31176 0.422395C8.17794 0.512203 8.06649 0.631484 7.98596 0.771079C7.90543 0.910673 7.85797 1.06687 7.84721 1.22766C7.83645 1.38846 7.86269 1.54959 7.92391 1.69866C7.98512 1.84774 8.07969 1.9808 8.20035 2.08764L12.9749 6.86222H1.20851C1.06276 6.86222 0.918438 6.89093 0.783781 6.94671C0.649124 7.00249 0.526772 7.08424 0.42371 7.1873C0.320648 7.29036 0.238894 7.41272 0.183118 7.54737C0.127341 7.68203 0.0986328 7.82635 0.0986328 7.97211C0.0986328 8.11786 0.127341 8.26218 0.183118 8.39684C0.238894 8.5315 0.320648 8.65385 0.42371 8.75691C0.526772 8.85997 0.649124 8.94173 0.783781 8.9975C0.918438 9.05328 1.06276 9.08199 1.20851 9.08199H12.9733L8.19868 13.8566C8.07797 13.9633 7.98335 14.0964 7.92206 14.2454C7.86077 14.3944 7.83446 14.5555 7.84514 14.7163C7.85581 14.8771 7.9032 15.0333 7.98365 15.173C8.06411 15.3126 8.17549 15.4319 8.30925 15.5218C8.53191 15.6832 8.80448 15.7606 9.07873 15.7404C9.35297 15.7201 9.61122 15.6036 9.80779 15.4112L9.81031 15.4037Z" fill="white"/>
</svg>
