<svg width="22" height="21" viewBox="0 0 22 21" fill="none" xmlns="http://www.w3.org/2000/svg">
<path d="M0.755371 18.2267C0.756874 17.7515 0.941041 17.2949 1.27015 16.9503C1.59926 16.6058 2.0484 16.3994 2.52557 16.3735C3.5949 14.4992 4.22167 12.4078 4.35848 10.2573L4.48293 8.65148V8.55556C5.70369 8.34506 6.81009 7.71164 7.60609 6.76755C8.40209 5.82346 8.83629 4.62965 8.83175 3.39767C8.8266 3.11889 8.80599 2.8406 8.77001 2.56408C8.92532 2.50269 9.04977 2.46815 9.20508 2.40964C9.16936 2.2784 9.14865 2.14357 9.14334 2.00771V1.85327C9.14334 1.36175 9.3397 0.890367 9.68923 0.542811C10.0388 0.195255 10.5128 0 11.0071 0C11.5014 0 11.9755 0.195255 12.325 0.542811C12.6745 0.890367 12.8709 1.36175 12.8709 1.85327V2.00771C12.868 2.14379 12.8472 2.2789 12.8092 2.40964C14.1685 2.80124 15.3635 3.62064 16.2147 4.74487C17.066 5.8691 17.5276 7.23751 17.5303 8.64477L17.6548 10.2506C17.8076 12.3982 18.4333 14.4862 19.4877 16.3667C19.9756 16.3886 20.4354 16.5999 20.7683 16.9552C21.1012 17.3106 21.2806 17.7816 21.268 18.2671C21.2553 18.7525 21.0516 19.2137 20.7007 19.5514C20.3498 19.8892 19.8796 20.0766 19.3912 20.0733H2.61915C2.12648 20.0718 1.65432 19.877 1.30531 19.5312C0.956309 19.1854 0.758674 18.7166 0.755371 18.2267Z" fill="url(#paint0_linear)"/>
<defs>
<linearGradient id="paint0_linear" x1="11.012" y1="0" x2="11.012" y2="20.0733" gradientUnits="userSpaceOnUse">
<stop stop-color="#647DEE"/>
<stop offset="1" stop-color="#7F53AC"/>
</linearGradient>
</defs>
</svg>
