<svg width="15" height="18" viewBox="0 0 15 18" fill="none" xmlns="http://www.w3.org/2000/svg">
<mask id="mask0" mask-type="alpha" maskUnits="userSpaceOnUse" x="0" y="0" width="15" height="18">
<path d="M13.6005 0H1.8518C1.13084 0 0.546387 0.575634 0.546387 1.28571V16.7143C0.546387 17.4244 1.13084 18 1.8518 18H13.6005C14.3215 18 14.9059 17.4244 14.9059 16.7143V1.28571C14.9059 0.575634 14.3215 0 13.6005 0Z" fill="white"/>
</mask>
<g mask="url(#mask0)">
<path fill-rule="evenodd" clip-rule="evenodd" d="M0.546387 1.28571C0.546387 0.575634 1.13084 0 1.8518 0H13.6005C14.3215 0 14.9059 0.575634 14.9059 1.28571V16.7143C14.9059 17.4244 14.3215 18 13.6005 18H1.8518C1.13084 18 0.546387 17.4244 0.546387 16.7143V1.28571Z" fill="url(#paint0_linear)"/>
<path d="M11.9035 14.1431H3.54885C3.33256 14.1431 3.15723 14.3158 3.15723 14.5288C3.15723 14.7418 3.33256 14.9145 3.54885 14.9145H11.9035C12.1198 14.9145 12.2951 14.7418 12.2951 14.5288C12.2951 14.3158 12.1198 14.1431 11.9035 14.1431Z" fill="#B6B6B6"/>
<path fill-rule="evenodd" clip-rule="evenodd" d="M3.15723 14.5288C3.15723 14.3158 3.33256 14.1431 3.54885 14.1431H11.9035C12.1198 14.1431 12.2951 14.3158 12.2951 14.5288C12.2951 14.7418 12.1198 14.9145 11.9035 14.9145H3.54885C3.33256 14.9145 3.15723 14.7418 3.15723 14.5288Z" fill="white"/>
<path d="M11.9035 11.5713H3.54885C3.33256 11.5713 3.15723 11.744 3.15723 11.957C3.15723 12.17 3.33256 12.3427 3.54885 12.3427H11.9035C12.1198 12.3427 12.2951 12.17 12.2951 11.957C12.2951 11.744 12.1198 11.5713 11.9035 11.5713Z" fill="#B6B6B6"/>
<path fill-rule="evenodd" clip-rule="evenodd" d="M3.15723 11.957C3.15723 11.744 3.33256 11.5713 3.54885 11.5713H11.9035C12.1198 11.5713 12.2951 11.744 12.2951 11.957C12.2951 12.17 12.1198 12.3427 11.9035 12.3427H3.54885C3.33256 12.3427 3.15723 12.17 3.15723 11.957Z" fill="white"/>
<path d="M11.9035 9H3.54885C3.33256 9 3.15723 9.17269 3.15723 9.38571C3.15723 9.59874 3.33256 9.77143 3.54885 9.77143H11.9035C12.1198 9.77143 12.2951 9.59874 12.2951 9.38571C12.2951 9.17269 12.1198 9 11.9035 9Z" fill="#B6B6B6"/>
<path fill-rule="evenodd" clip-rule="evenodd" d="M3.15723 9.38571C3.15723 9.17269 3.33256 9 3.54885 9H11.9035C12.1198 9 12.2951 9.17269 12.2951 9.38571C12.2951 9.59874 12.1198 9.77143 11.9035 9.77143H3.54885C3.33256 9.77143 3.15723 9.59874 3.15723 9.38571Z" fill="white"/>
<path d="M11.9035 6.42847H3.54885C3.33256 6.42847 3.15723 6.60116 3.15723 6.81418C3.15723 7.02721 3.33256 7.1999 3.54885 7.1999H11.9035C12.1198 7.1999 12.2951 7.02721 12.2951 6.81418C12.2951 6.60116 12.1198 6.42847 11.9035 6.42847Z" fill="#B6B6B6"/>
<path fill-rule="evenodd" clip-rule="evenodd" d="M3.15723 6.81418C3.15723 6.60116 3.33256 6.42847 3.54885 6.42847H11.9035C12.1198 6.42847 12.2951 6.60116 12.2951 6.81418C12.2951 7.02721 12.1198 7.1999 11.9035 7.1999H3.54885C3.33256 7.1999 3.15723 7.02721 3.15723 6.81418Z" fill="white"/>
<path d="M11.9035 3.85693H3.54885C3.33256 3.85693 3.15723 4.02962 3.15723 4.24265C3.15723 4.45567 3.33256 4.62836 3.54885 4.62836H11.9035C12.1198 4.62836 12.2951 4.45567 12.2951 4.24265C12.2951 4.02962 12.1198 3.85693 11.9035 3.85693Z" fill="#B6B6B6"/>
<path fill-rule="evenodd" clip-rule="evenodd" d="M3.15723 4.24265C3.15723 4.02962 3.33256 3.85693 3.54885 3.85693H11.9035C12.1198 3.85693 12.2951 4.02962 12.2951 4.24265C12.2951 4.45567 12.1198 4.62836 11.9035 4.62836H3.54885C3.33256 4.62836 3.15723 4.45567 3.15723 4.24265Z" fill="white"/>
</g>
<defs>
<linearGradient id="paint0_linear" x1="7.72616" y1="0" x2="7.72616" y2="18" gradientUnits="userSpaceOnUse">
<stop stop-color="#647DEE"/>
<stop offset="1" stop-color="#7F53AC"/>
</linearGradient>
</defs>
</svg>
