<svg width="16" height="16" viewBox="0 0 16 16" fill="none" xmlns="http://www.w3.org/2000/svg">
<path d="M15.3516 14.6484L10.6406 9.9375C11.0625 9.43229 11.3932 8.86719 11.6328 8.24219C11.8776 7.61198 12 6.94792 12 6.25C12 5.72396 11.9297 5.21875 11.7891 4.73438C11.6536 4.24479 11.4609 3.78646 11.2109 3.35938C10.9609 2.93229 10.6589 2.54427 10.3047 2.19531C9.95573 1.84115 9.56771 1.53906 9.14062 1.28906C8.71354 1.03906 8.25521 0.846354 7.76562 0.710938C7.28125 0.570312 6.77604 0.5 6.25 0.5C5.46354 0.5 4.72135 0.653646 4.02344 0.960938C3.33073 1.26302 2.72135 1.67708 2.19531 2.20312C1.67448 2.72396 1.26042 3.33333 0.953125 4.03125C0.651042 4.72396 0.5 5.46354 0.5 6.25C0.5 6.77083 0.567708 7.27604 0.703125 7.76562C0.84375 8.25 1.03906 8.70573 1.28906 9.13281C1.54427 9.55469 1.84896 9.94271 2.20312 10.2969C2.55729 10.651 2.94531 10.9557 3.36719 11.2109C3.79427 11.4609 4.25 11.6562 4.73438 11.7969C5.22396 11.9323 5.72917 12 6.25 12C6.94792 12 7.60938 11.8802 8.23438 11.6406C8.86458 11.3958 9.43229 11.0625 9.9375 10.6406L14.6484 15.3516C14.7474 15.4505 14.8646 15.5 15 15.5C15.1354 15.5 15.2526 15.4505 15.3516 15.3516C15.4505 15.2526 15.5 15.1354 15.5 15C15.5 14.8646 15.4505 14.7474 15.3516 14.6484ZM1.5 6.25C1.5 5.60417 1.625 4.99479 1.875 4.42188C2.13021 3.84375 2.47396 3.33854 2.90625 2.90625C3.33854 2.47396 3.84115 2.13281 4.41406 1.88281C4.99219 1.6276 5.60417 1.5 6.25 1.5C6.89583 1.5 7.50521 1.6276 8.07812 1.88281C8.65625 2.13281 9.16146 2.47396 9.59375 2.90625C10.026 3.33854 10.3672 3.84375 10.6172 4.42188C10.8724 4.99479 11 5.60417 11 6.25C11 6.89583 10.8724 7.50781 10.6172 8.08594C10.3672 8.65885 10.026 9.16146 9.59375 9.59375C9.16146 10.026 8.65625 10.3698 8.07812 10.625C7.50521 10.875 6.89583 11 6.25 11C5.60417 11 4.99219 10.875 4.41406 10.625C3.84115 10.3698 3.33854 10.026 2.90625 9.59375C2.47396 9.16146 2.13021 8.65885 1.875 8.08594C1.625 7.50781 1.5 6.89583 1.5 6.25Z" fill="url(#paint0_linear)"/>
<path d="M15.3516 14.6484L15.2101 14.7899L15.3516 14.6484ZM10.6406 9.9375L10.4871 9.80931L10.3699 9.94964L10.4992 10.0789L10.6406 9.9375ZM11.6328 8.24219L11.4464 8.16977L11.4461 8.1706L11.6328 8.24219ZM11.7891 4.73438L11.5963 4.7877L11.597 4.79014L11.7891 4.73438ZM10.3047 2.19531L10.1622 2.3357L10.1643 2.33778L10.3047 2.19531ZM7.76562 0.710938L7.70986 0.903022L7.71231 0.9037L7.76562 0.710938ZM4.02344 0.960938L4.10338 1.14426L4.10403 1.14398L4.02344 0.960938ZM2.19531 2.20312L2.05389 2.0617L2.19531 2.20312ZM0.953125 4.03125L0.770081 3.95066L0.769799 3.9513L0.953125 4.03125ZM0.703125 7.76562L0.510347 7.81895L0.511056 7.82139L0.703125 7.76562ZM1.28906 9.13281L1.11644 9.23386L1.11794 9.23633L1.28906 9.13281ZM3.36719 11.2109L3.26366 11.3821L3.26615 11.3835L3.36719 11.2109ZM4.73438 11.7969L4.67861 11.989L4.68106 11.9896L4.73438 11.7969ZM8.23438 11.6406L8.30596 11.8274L8.30679 11.8271L8.23438 11.6406ZM9.9375 10.6406L10.0789 10.4992L9.94964 10.3699L9.80931 10.4871L9.9375 10.6406ZM14.6484 15.3516L14.507 15.493L14.6484 15.3516ZM1.875 4.42188L1.69203 4.34111L1.69169 4.34189L1.875 4.42188ZM4.41406 1.88281L4.49405 2.06612L4.49483 2.06578L4.41406 1.88281ZM8.07812 1.88281L7.99674 2.06552L7.99874 2.06638L8.07812 1.88281ZM10.6172 4.42188L10.4336 4.50126L10.4345 4.50326L10.6172 4.42188ZM10.6172 8.08594L10.4342 8.00517L10.4339 8.00595L10.6172 8.08594ZM8.07812 10.625L8.15811 10.8083L8.15889 10.808L8.07812 10.625ZM4.41406 10.625L4.33268 10.8077L4.33468 10.8086L4.41406 10.625ZM1.875 8.08594L1.69142 8.16532L1.69231 8.16732L1.875 8.08594ZM15.493 14.507L10.782 9.79608L10.4992 10.0789L15.2101 14.7899L15.493 14.507ZM10.7941 10.0657C11.2304 9.54329 11.5722 8.95899 11.8196 8.31377L11.4461 8.1706C11.2142 8.77538 10.8946 9.3213 10.4871 9.80931L10.7941 10.0657ZM11.8192 8.3146C12.0733 7.66056 12.2 6.97187 12.2 6.25H11.8C11.8 6.92396 11.6819 7.5634 11.4464 8.16977L11.8192 8.3146ZM12.2 6.25C12.2 5.7059 12.1272 5.18187 11.9811 4.67861L11.597 4.79014C11.7321 5.25563 11.8 5.74201 11.8 6.25H12.2ZM11.9818 4.68106C11.8419 4.17521 11.6425 3.70078 11.3835 3.25834L11.0383 3.46041C11.2793 3.87214 11.4654 4.31438 11.5963 4.78769L11.9818 4.68106ZM11.3835 3.25834C11.1246 2.81602 10.8117 2.41408 10.4451 2.05285L10.1643 2.33778C10.506 2.67446 10.7973 3.04857 11.0383 3.46041L11.3835 3.25834ZM10.4472 2.05494C10.0859 1.68832 9.68398 1.37538 9.24166 1.11646L9.03959 1.46167C9.45143 1.70275 9.82554 1.99397 10.1622 2.33568L10.4472 2.05494ZM9.24166 1.11646C8.79922 0.857469 8.32479 0.658092 7.81894 0.518175L7.71231 0.9037C8.18562 1.03462 8.62786 1.22066 9.03959 1.46167L9.24166 1.11646ZM7.82139 0.518868C7.31813 0.37276 6.7941 0.3 6.25 0.3V0.7C6.75799 0.7 7.24437 0.767865 7.70986 0.903007L7.82139 0.518868ZM6.25 0.3C5.43668 0.3 4.66696 0.459067 3.94284 0.777895L4.10403 1.14398C4.77575 0.848225 5.4904 0.7 6.25 0.7V0.3ZM3.94349 0.777611C3.22822 1.08953 2.59791 1.51769 2.05389 2.0617L2.33673 2.34455C2.8448 1.83648 3.43324 1.43651 4.10338 1.14426L3.94349 0.777611ZM2.05389 2.0617C1.51492 2.60068 1.087 3.23087 0.770082 3.95066L1.13617 4.11184C1.43383 3.43579 1.83404 2.84724 2.33673 2.34455L2.05389 2.0617ZM0.769799 3.9513C0.45627 4.67026 0.3 5.43717 0.3 6.25H0.7C0.7 5.48991 0.845814 4.77766 1.13645 4.1112L0.769799 3.9513ZM0.3 6.25C0.3 6.78839 0.370022 7.31156 0.510363 7.81894L0.895887 7.71231C0.765395 7.24053 0.7 6.75328 0.7 6.25H0.3ZM0.511056 7.82139C0.656189 8.32129 0.85797 8.79226 1.11646 9.23385L1.46167 9.03178C1.22016 8.6192 1.03131 8.17871 0.895194 7.70986L0.511056 7.82139ZM1.11794 9.23633C1.38162 9.67221 1.69633 10.0729 2.0617 10.4383L2.34455 10.1555C2.00159 9.8125 1.70693 9.43717 1.46019 9.02929L1.11794 9.23633ZM2.0617 10.4383C2.42708 10.8037 2.82779 11.1184 3.26367 11.3821L3.47071 11.0398C3.06283 10.7931 2.6875 10.4984 2.34455 10.1555L2.0617 10.4383ZM3.26615 11.3835C3.70774 11.642 4.17871 11.8438 4.67861 11.9889L4.79014 11.6048C4.32129 11.4687 3.8808 11.2798 3.46822 11.0383L3.26615 11.3835ZM4.68106 11.9896C5.18844 12.13 5.71161 12.2 6.25 12.2V11.8C5.74672 11.8 5.25947 11.7346 4.78769 11.6041L4.68106 11.9896ZM6.25 12.2C6.97133 12.2 7.65714 12.0761 8.30596 11.8274L8.16279 11.4539C7.56161 11.6843 6.9245 11.8 6.25 11.8V12.2ZM8.30679 11.8271C8.9567 11.5746 9.54335 11.2303 10.0657 10.7941L9.80931 10.4871C9.32123 10.8947 8.77247 11.2171 8.16196 11.4542L8.30679 11.8271ZM9.79608 10.782L14.507 15.493L14.7899 15.2101L10.0789 10.4992L9.79608 10.782ZM14.507 15.493C14.6421 15.628 14.8096 15.7 15 15.7V15.3C14.9196 15.3 14.8527 15.273 14.7899 15.2101L14.507 15.493ZM15 15.7C15.1904 15.7 15.3579 15.628 15.493 15.493L15.2101 15.2101C15.1473 15.273 15.0804 15.3 15 15.3V15.7ZM15.493 15.493C15.628 15.3579 15.7 15.1904 15.7 15H15.3C15.3 15.0804 15.273 15.1473 15.2101 15.2101L15.493 15.493ZM15.7 15C15.7 14.8096 15.628 14.6421 15.493 14.507L15.2101 14.7899C15.273 14.8527 15.3 14.9196 15.3 15H15.7ZM1.7 6.25C1.7 5.63076 1.81969 5.04871 2.05831 4.50186L1.69169 4.34189C1.43031 4.94088 1.3 5.57757 1.3 6.25H1.7ZM2.05797 4.50264C2.30353 3.94635 2.63345 3.4619 3.04767 3.04767L2.76483 2.76483C2.31447 3.21519 1.95688 3.74115 1.69203 4.34111L2.05797 4.50264ZM3.04767 3.04767C3.46188 2.63346 3.94352 2.30635 4.49405 2.06612L4.33407 1.6995C3.73877 1.95927 3.2152 2.31446 2.76483 2.76483L3.04767 3.04767ZM4.49483 2.06578C5.04694 1.82205 5.63135 1.7 6.25 1.7V1.3C5.57698 1.3 4.93743 1.43315 4.33329 1.69985L4.49483 2.06578ZM6.25 1.7C6.86865 1.7 7.45021 1.82205 7.99674 2.06551L8.15951 1.70012C7.56021 1.43316 6.92302 1.3 6.25 1.3V1.7ZM7.99874 2.06638C8.55443 2.30668 9.03842 2.63376 9.45233 3.04767L9.73517 2.76483C9.2845 2.31416 8.75807 1.95894 8.15751 1.69924L7.99874 2.06638ZM9.45233 3.04767C9.86624 3.46158 10.1933 3.94557 10.4336 4.50126L10.8008 4.34249C10.5411 3.74193 10.1858 3.2155 9.73517 2.76483L9.45233 3.04767ZM10.4345 4.50326C10.6779 5.04979 10.8 5.63135 10.8 6.25H11.2C11.2 5.57698 11.0668 4.93979 10.7999 4.34049L10.4345 4.50326ZM10.8 6.25C10.8 6.86865 10.6779 7.45306 10.4342 8.00517L10.8002 8.16671C11.0668 7.56257 11.2 6.92302 11.2 6.25H10.8ZM10.4339 8.00595C10.1936 8.55648 9.86654 9.03812 9.45233 9.45233L9.73517 9.73517C10.1855 9.2848 10.5407 8.76123 10.8005 8.16593L10.4339 8.00595ZM9.45233 9.45233C9.0381 9.86655 8.55365 10.1965 7.99736 10.442L8.15889 10.808C8.75885 10.5431 9.28481 10.1855 9.73517 9.73517L9.45233 9.45233ZM7.99814 10.4417C7.45129 10.6803 6.86924 10.8 6.25 10.8V11.2C6.92243 11.2 7.55912 11.0697 8.15811 10.8083L7.99814 10.4417ZM6.25 10.8C5.63076 10.8 5.04586 10.6803 4.49344 10.4414L4.33468 10.8086C4.93851 11.0697 5.57757 11.2 6.25 11.2V10.8ZM4.49544 10.4423C3.94431 10.1968 3.46219 9.86685 3.04767 9.45233L2.76483 9.73517C3.21489 10.1852 3.73798 10.5428 4.33268 10.8077L4.49544 10.4423ZM3.04767 9.45233C2.63315 9.03781 2.3032 8.55569 2.05769 8.00456L1.69231 8.16732C1.95722 8.76202 2.31477 9.28511 2.76483 9.73517L3.04767 9.45233ZM2.05857 8.00656C1.81969 7.45414 1.7 6.86924 1.7 6.25H1.3C1.3 6.92243 1.43031 7.56149 1.69143 8.16532L2.05857 8.00656Z" fill="url(#paint1_linear)"/>
<defs>
<linearGradient id="paint0_linear" x1="8" y1="0" x2="8" y2="16" gradientUnits="userSpaceOnUse">
<stop stop-color="#647DEE"/>
<stop offset="1" stop-color="#7F53AC"/>
</linearGradient>
<linearGradient id="paint1_linear" x1="8" y1="0" x2="8" y2="16" gradientUnits="userSpaceOnUse">
<stop stop-color="#647DEE"/>
<stop offset="1" stop-color="#7F53AC"/>
</linearGradient>
</defs>
</svg>
