<svg width="18" height="19" viewBox="0 0 18 19" fill="none" xmlns="http://www.w3.org/2000/svg">
<path d="M9 19C13.9706 19 18 14.8242 18 9.6731C18 4.52199 13.9706 0.346191 9 0.346191C4.02944 0.346191 0 4.52199 0 9.6731C0 14.8242 4.02944 19 9 19Z" fill="url(#paint0_linear)"/>
<path d="M7.46665 12.2599C7.517 12.3076 7.58281 12.3358 7.65218 12.3393L7.83772 12.2868L12.9442 7.4548C12.9927 7.40546 13.0199 7.3391 13.0199 7.26999C13.0199 7.20087 12.9927 7.13452 12.9442 7.08518C12.8952 7.03839 12.8314 7.01016 12.7637 7.00537C12.6961 7.00057 12.6289 7.01952 12.5738 7.05892L7.6778 11.7072L5.42849 9.35818C5.40571 9.32804 5.37672 9.30312 5.34347 9.28512C5.31022 9.26711 5.27348 9.25644 5.23574 9.25381C5.198 9.25118 5.16014 9.25667 5.1247 9.26989C5.08927 9.28312 5.05709 9.30377 5.03034 9.33047C5.00359 9.35716 4.98289 9.38928 4.96964 9.42464C4.95638 9.46 4.95089 9.49779 4.95352 9.53545C4.95615 9.57311 4.96685 9.60977 4.98489 9.64295C5.00294 9.67614 5.0279 9.70507 5.05811 9.7278L7.46665 12.2599Z" fill="white" stroke="white" stroke-width="0.2"/>
<defs>
<linearGradient id="paint0_linear" x1="9" y1="0.346191" x2="9" y2="19" gradientUnits="userSpaceOnUse">
<stop stop-color="#647DEE"/>
<stop offset="1" stop-color="#7F53AC"/>
</linearGradient>
</defs>
</svg>
