<svg width="7" height="12" viewBox="0 0 7 12" fill="none" xmlns="http://www.w3.org/2000/svg">
<path d="M1.00781 0.5C0.867188 0.5 0.75 0.546875 0.65625 0.640625C0.557292 0.734375 0.507812 0.851562 0.507812 0.992188C0.507812 1.13281 0.557292 1.2526 0.65625 1.35156L5.30469 6L0.65625 10.6406C0.557292 10.7396 0.507812 10.8568 0.507812 10.9922C0.507812 11.1276 0.557292 11.2474 0.65625 11.3516C0.75 11.4505 0.867188 11.5 1.00781 11.5C1.14323 11.5 1.26042 11.4505 1.35938 11.3516L6.35938 6.35156C6.45833 6.2526 6.50781 6.13281 6.50781 5.99219C6.50781 5.85677 6.45833 5.73958 6.35938 5.64062L1.35938 0.640625C1.26562 0.546875 1.14844 0.5 1.00781 0.5Z" fill="url(#paint0_linear)"/>
<path d="M0.65625 0.640625L0.797723 0.782098L0.793799 0.785816L0.65625 0.640625ZM5.30469 6L5.44611 5.85858L5.58765 6.00012L5.44599 6.14154L5.30469 6ZM0.65625 10.6406L0.514829 10.4992L0.514948 10.4991L0.65625 10.6406ZM0.65625 11.3516L0.80125 11.2138L0.801441 11.214L0.65625 11.3516ZM1.35938 11.3516L1.5008 11.493L1.35938 11.3516ZM6.35938 5.64062L6.5008 5.4992L6.35938 5.64062ZM1.00781 0.7C0.91666 0.7 0.851462 0.728255 0.797671 0.782046L0.514829 0.499204C0.648538 0.365495 0.817715 0.3 1.00781 0.3V0.7ZM0.793799 0.785816C0.736108 0.84047 0.707813 0.904523 0.707813 0.992188H0.307812C0.307812 0.798602 0.378475 0.62828 0.518701 0.495434L0.793799 0.785816ZM0.707813 0.992188C0.707813 1.08006 0.736424 1.14889 0.797671 1.21014L0.514829 1.49298C0.378159 1.35631 0.307812 1.18557 0.307812 0.992188H0.707813ZM0.797671 1.21014L5.44611 5.85858L5.16327 6.14142L0.514829 1.49298L0.797671 1.21014ZM5.44599 6.14154L0.797552 10.7822L0.514948 10.4991L5.16339 5.85846L5.44599 6.14154ZM0.797671 10.782C0.734818 10.8449 0.707813 10.9118 0.707813 10.9922H0.307812C0.307812 10.8018 0.379766 10.6343 0.514829 10.4992L0.797671 10.782ZM0.707813 10.9922C0.707813 11.073 0.735231 11.1443 0.80125 11.2138L0.51125 11.4893C0.379352 11.3505 0.307812 11.1822 0.307812 10.9922H0.707813ZM0.801441 11.214C0.856095 11.2717 0.920148 11.3 1.00781 11.3V11.7C0.814227 11.7 0.643905 11.6293 0.511059 11.4891L0.801441 11.214ZM1.00781 11.3C1.08823 11.3 1.1551 11.273 1.21795 11.2101L1.5008 11.493C1.36573 11.628 1.19822 11.7 1.00781 11.7V11.3ZM1.21795 11.2101L6.21795 6.21014L6.5008 6.49298L1.5008 11.493L1.21795 11.2101ZM6.21795 6.21014C6.2792 6.14889 6.30781 6.08006 6.30781 5.99219H6.70781C6.70781 6.18557 6.63747 6.35631 6.5008 6.49298L6.21795 6.21014ZM6.30781 5.99219C6.30781 5.91177 6.28081 5.8449 6.21795 5.78205L6.5008 5.4992C6.63586 5.63427 6.70781 5.80178 6.70781 5.99219H6.30781ZM6.21795 5.78205L1.21795 0.782046L1.5008 0.499204L6.5008 5.4992L6.21795 5.78205ZM1.21795 0.782046C1.16416 0.728255 1.09897 0.7 1.00781 0.7V0.3C1.19791 0.3 1.36709 0.365495 1.5008 0.499204L1.21795 0.782046Z" fill="url(#paint1_linear)"/>
<defs>
<linearGradient id="paint0_linear" x1="3.5" y1="-2" x2="3.5" y2="14" gradientUnits="userSpaceOnUse">
<stop stop-color="#647DEE"/>
<stop offset="1" stop-color="#7F53AC"/>
</linearGradient>
<linearGradient id="paint1_linear" x1="3.5" y1="-2" x2="3.5" y2="14" gradientUnits="userSpaceOnUse">
<stop stop-color="#647DEE"/>
<stop offset="1" stop-color="#7F53AC"/>
</linearGradient>
</defs>
</svg>
